<svg width="21" height="21" viewBox="0 0 21 21" fill="none" xmlns="http://www.w3.org/2000/svg">
<path d="M2.60938 0.0224609C1.50481 0.0224609 0.609375 0.917892 0.609375 2.02246V18.0225C0.609375 19.127 1.50481 20.0225 2.60938 20.0225H8.2927C8.24819 19.892 8.21957 19.7407 8.21957 19.5531V17.9017H7.02088C6.36828 17.9017 5.78801 17.6175 5.50662 17.0893C5.41196 16.9114 5.34103 16.7051 5.26659 16.4885C5.09535 15.9903 4.90559 15.4382 4.36595 15.0555C4.13623 14.8727 4.31111 14.6642 4.5758 14.6923C5.06466 14.8324 5.47005 15.1722 5.8516 15.6762C6.23156 16.1811 6.41041 16.2954 7.12024 16.2954C7.46443 16.2954 7.97952 16.2753 8.4644 16.198C8.72512 15.5273 9.17583 14.9097 9.72668 14.6183C6.55031 14.2874 5.03445 12.6867 5.03445 10.5136C5.03445 9.57802 5.42792 8.67302 6.09643 7.91054C5.87704 7.1537 5.60121 5.61022 6.18068 5.02246C7.60989 5.02246 8.47394 5.96127 8.6814 6.21489C9.39362 5.96771 10.1758 5.82761 10.9977 5.82761C11.8212 5.82761 12.6066 5.96771 13.3204 6.2165C13.5255 5.96449 14.3903 5.02246 15.8227 5.02246C16.4045 5.61103 16.1255 7.16095 15.9038 7.91618C16.5683 8.67705 16.9594 9.57963 16.9594 10.5136C16.9594 12.6851 15.4459 14.2849 12.2743 14.6175C13.1471 15.0788 13.7838 16.3751 13.7838 17.3518V19.5531C13.7838 19.6368 13.7655 19.9508 13.756 20.0225H18.6094C19.7139 20.0225 20.6094 19.127 20.6094 18.0225V2.02246C20.6094 0.917892 19.7139 0.0224609 18.6094 0.0224609H2.60938Z" fill="#D1E9FF"/>
</svg>
