<svg width="21" height="21" viewBox="0 0 21 21" fill="none" xmlns="http://www.w3.org/2000/svg">
<path fill-rule="evenodd" clip-rule="evenodd" d="M18.6094 0.0224609H2.60938C1.50481 0.0224609 0.609375 0.917891 0.609375 2.02246V18.0225C0.609375 19.127 1.50481 20.0225 2.60938 20.0225H18.6094C19.7139 20.0225 20.6094 19.127 20.6094 18.0225V2.02246C20.6094 0.917891 19.7139 0.0224609 18.6094 0.0224609ZM4.60938 4.5865C4.60938 5.44995 5.30969 6.15145 6.17575 6.15145C7.03908 6.15145 7.74121 5.44995 7.74121 4.5865C7.74121 3.72396 7.03908 3.02246 6.17575 3.02246C5.3106 3.02246 4.60938 3.72305 4.60938 4.5865ZM4.85981 16.0225H7.54633V7.38612H4.85981V16.0225ZM17.6094 16.0225H14.9247V11.8226C14.9247 10.8208 14.9065 9.53247 13.5286 9.53247C12.1307 9.53247 11.9158 10.6234 11.9158 11.7498V16.0225H9.23109V7.38612H11.8083V8.5662H11.8448C12.2036 7.88745 13.0796 7.1714 14.3865 7.1714C17.1067 7.1714 17.6094 8.96017 17.6094 11.2858V16.0225Z" fill="#D1E9FF"/>
</svg>
