<svg width="168" height="68" viewBox="0 0 168 68" fill="none" xmlns="http://www.w3.org/2000/svg">
<g clip-path="url(#clip0_628_99278)">
<path d="M18.4116 19.5714C16.8588 18.1733 14.4795 18.3259 13.102 19.9018C11.7245 21.4778 11.8748 23.8926 13.4276 25.2907C14.9804 26.6887 17.3597 26.5362 18.7371 24.9602C18.9876 24.6552 19.1879 24.3247 19.3382 23.9943H89.6398V20.8678H19.3382C19.1128 20.3848 18.8123 19.9527 18.4116 19.5714Z" fill="white"/>
<path d="M74.7109 29.4304H65.319H4.20892C4.00856 29.0237 3.73306 28.617 3.35738 28.312C1.90477 26.9902 -0.349291 27.1427 -1.65164 28.617C-2.95398 30.0913 -2.80371 32.379 -1.3511 33.7008C0.101521 35.0226 2.35558 34.8701 3.65793 33.3958C3.88333 33.1416 4.0336 32.862 4.18387 32.5823H62.6892L56.8788 39.4709H38.9966C38.7962 39.0642 38.5207 38.6575 38.145 38.3524C36.6924 37.0307 34.4384 37.1832 33.136 38.6575C31.8337 40.1318 31.9839 42.4195 33.4366 43.7413C34.8892 45.0631 37.1432 44.9105 38.4456 43.4362C38.671 43.182 38.8213 42.9024 38.9715 42.6228H58.2813L66.7215 32.6078H74.6858H96.5252V29.4812H74.7109V29.4304Z" fill="white"/>
<path d="M16.9834 15.8572H61.2131C61.3633 16.213 61.5637 16.5435 61.8141 16.8485C63.1916 18.4245 65.5709 18.577 67.1488 17.179C68.7016 15.7809 68.8518 13.3661 67.4743 11.7647C66.0969 10.1888 63.7176 10.0362 62.1397 11.4343C61.714 11.8156 61.4134 12.2477 61.2131 12.7307H19.6382L25.4487 5.84211H43.3058C43.5062 6.24882 43.7817 6.65552 44.1323 6.96055C45.5849 8.28233 47.839 8.12982 49.1413 6.65552C50.4437 5.18122 50.2934 2.89351 48.8408 1.57173C47.3882 0.249942 45.1341 0.402456 43.8318 1.87676C43.6064 2.13095 43.4561 2.41055 43.3058 2.69016H24.0211L15.5809 12.7052H9.09421H-14.2228V15.8318H9.09421H16.9834V15.8572Z" fill="white"/>
<path d="M1.33582 57.7711C1.38591 57.7965 1.46105 57.8473 1.53618 57.949L7.02105 65.1934C6.99601 65.0663 6.99601 64.9646 6.99601 64.863C6.99601 64.7613 6.99601 64.6596 6.99601 64.5325V57.7202H8.12303V67.3286H7.47186C7.37168 67.3286 7.29655 67.3032 7.22141 67.2778C7.14628 67.2523 7.09619 67.1761 7.02105 67.0998L1.53618 59.8554C1.53618 59.9571 1.56123 60.0842 1.56123 60.1859C1.56123 60.2875 1.56123 60.3892 1.56123 60.4909V67.3286H0.434204V57.7202H1.08537C1.18555 57.7202 1.26069 57.7456 1.33582 57.7711Z" fill="white"/>
<path d="M18.8684 57.7202V58.7878H14.3352V61.9906H18.0169V63.0074H14.3352V66.2864H18.8684V67.354H13.0329V57.7456H18.8684V57.7202Z" fill="white"/>
<path d="M29.8117 57.7202V58.8132H26.7562V67.3286H25.4789V58.8132H22.3983V57.7202H29.8117Z" fill="white"/>
<path d="M45.4375 57.7202V58.8132H42.382V67.3286H41.1047V58.8132H38.0242V57.7202H45.4375Z" fill="white"/>
<path d="M50.8195 63.3353V67.3515H49.5422V57.7432H52.222C52.8231 57.7432 53.349 57.794 53.7748 57.9211C54.2006 58.0482 54.5762 58.2261 54.8517 58.4549C55.1272 58.6837 55.3526 58.9633 55.4779 59.2937C55.6031 59.6242 55.6782 59.98 55.6782 60.3867C55.6782 60.7172 55.6281 61.0476 55.528 61.3272C55.4278 61.6323 55.2775 61.8865 55.0771 62.1152C54.8768 62.344 54.6263 62.5474 54.3508 62.7253C54.0753 62.9032 53.7247 63.0049 53.3741 63.1066C53.5244 63.2082 53.6746 63.3353 53.7998 63.5133L56.5548 67.3261H55.4278C55.2024 67.3261 55.0271 67.2244 54.9018 67.0465L52.4474 63.6149C52.3723 63.5133 52.2971 63.437 52.197 63.3862C52.0968 63.3353 51.9716 63.3099 51.7962 63.3099H50.8195V63.3353ZM50.8195 62.3694H52.1719C52.5476 62.3694 52.8732 62.3186 53.1487 62.2423C53.4242 62.1661 53.6746 62.0136 53.8499 61.861C54.0503 61.6831 54.1755 61.5052 54.2757 61.251C54.3759 61.0222 54.426 60.768 54.426 60.4884C54.426 59.9038 54.2507 59.4971 53.875 59.192C53.4993 58.9124 52.9483 58.7599 52.222 58.7599H50.8195V62.3694Z" fill="white"/>
<path d="M68.3524 67.3286H67.3505C67.2253 67.3286 67.1502 67.3032 67.0751 67.2523C66.9999 67.2015 66.9498 67.1252 66.9248 67.0236L66.0482 64.7104H61.7905L60.914 67.0236C60.8889 67.0998 60.8388 67.1761 60.7637 67.2269C60.6886 67.2778 60.5884 67.3286 60.4882 67.3286H59.4864L63.2682 57.7202H64.5705L68.3524 67.3286ZM62.1412 63.7699H65.6725L64.1949 59.8554C64.0947 59.6266 63.9945 59.3216 63.9194 58.9403C63.8693 59.1183 63.8192 59.2962 63.7691 59.4487C63.719 59.6012 63.6689 59.7283 63.6439 59.8554L62.1412 63.7699Z" fill="white"/>
<path d="M80.4012 62.5244C80.4012 63.2361 80.301 63.897 80.0756 64.4817C79.8502 65.0663 79.5246 65.5747 79.1239 66.0068C78.7232 66.4389 78.2223 66.744 77.6462 66.9727C77.0702 67.2015 76.4441 67.3286 75.7428 67.3286H72.2114V57.7202H75.7428C76.4441 57.7202 77.0702 57.8473 77.6462 58.0761C78.2223 58.3049 78.6981 58.6353 79.1239 59.0674C79.5246 59.4995 79.8502 60.0079 80.0756 60.5926C80.276 61.1518 80.4012 61.8127 80.4012 62.5244ZM79.0738 62.5244C79.0738 61.9398 78.9987 61.406 78.8234 60.9484C78.6731 60.4909 78.4477 60.0842 78.1471 59.7792C77.8466 59.4487 77.496 59.2199 77.0952 59.042C76.6695 58.8641 76.2187 58.7878 75.7178 58.7878H73.4637V66.2864H75.7178C76.2187 66.2864 76.6945 66.2102 77.0952 66.0322C77.521 65.8543 77.8716 65.6255 78.1471 65.2951C78.4477 64.9646 78.6731 64.5833 78.8234 64.1258C78.9987 63.6428 79.0738 63.1345 79.0738 62.5244Z" fill="white"/>
<path d="M86.3139 67.3286H85.0366V57.7202H86.3139V67.3286Z" fill="white"/>
<path d="M92.3966 57.7711C92.4467 57.7965 92.5218 57.8473 92.597 57.949L98.0819 65.1934C98.0568 65.0663 98.0568 64.9646 98.0568 64.863C98.0568 64.7613 98.0568 64.6596 98.0568 64.5325V57.7202H99.1838V67.3286H98.5327C98.4325 67.3286 98.3573 67.3032 98.2822 67.2778C98.2071 67.2523 98.157 67.1761 98.0819 67.0998L92.597 59.8554C92.597 59.9571 92.622 60.0842 92.622 60.1859C92.622 60.2875 92.622 60.3892 92.622 60.4909V67.3286H91.495V57.7202H92.1462C92.2463 57.7202 92.3465 57.7456 92.3966 57.7711Z" fill="white"/>
<path d="M108.328 66.384C108.579 66.384 108.829 66.384 109.03 66.3586C109.23 66.3332 109.455 66.3078 109.631 66.2569C109.806 66.2061 110.006 66.1552 110.157 66.079C110.332 66.0027 110.482 65.9265 110.658 65.8502V63.715H109.18C109.105 63.715 109.03 63.6896 108.98 63.6388C108.93 63.5879 108.904 63.5371 108.904 63.4608V62.7237H111.81V66.4094C111.584 66.5874 111.334 66.7399 111.058 66.867C110.783 66.9941 110.532 67.0958 110.232 67.1974C109.931 67.2737 109.631 67.3499 109.28 67.4008C108.955 67.4516 108.579 67.4516 108.178 67.4516C107.502 67.4516 106.851 67.3245 106.3 67.0958C105.724 66.867 105.223 66.5111 104.822 66.079C104.396 65.6469 104.096 65.1385 103.845 64.5284C103.62 63.9184 103.495 63.2575 103.495 62.5458C103.495 61.8086 103.62 61.1477 103.845 60.5377C104.071 59.9276 104.396 59.4192 104.822 58.9871C105.248 58.555 105.749 58.2245 106.35 57.9958C106.951 57.767 107.602 57.6399 108.353 57.6399C108.729 57.6399 109.08 57.6653 109.405 57.7161C109.731 57.767 110.032 57.8432 110.307 57.9703C110.583 58.0974 110.833 58.1991 111.058 58.3516C111.284 58.5041 111.509 58.6821 111.71 58.86L111.334 59.4446C111.259 59.5717 111.159 59.6226 111.033 59.6226C110.958 59.6226 110.883 59.5972 110.808 59.5463C110.708 59.4955 110.583 59.4192 110.432 59.3175C110.307 59.2159 110.132 59.1396 109.931 59.0634C109.731 58.9871 109.506 58.9108 109.23 58.86C108.955 58.8092 108.654 58.7837 108.278 58.7837C107.752 58.7837 107.252 58.86 106.826 59.0379C106.4 59.2159 106.024 59.4701 105.724 59.8005C105.423 60.131 105.198 60.5377 105.023 60.9952C104.847 61.4527 104.772 61.9865 104.772 62.5712C104.772 63.1812 104.847 63.715 105.023 64.198C105.198 64.6809 105.423 65.0877 105.749 65.4181C106.049 65.7485 106.425 66.0027 106.851 66.1807C107.352 66.3078 107.828 66.384 108.328 66.384Z" fill="white"/>
<path d="M121.299 63.3578C121.299 63.2307 121.324 63.0782 121.374 62.9511C121.424 62.824 121.5 62.7223 121.575 62.6207C121.675 62.519 121.775 62.4682 121.9 62.4173C122.026 62.3665 122.151 62.3411 122.276 62.3411C122.401 62.3411 122.551 62.3665 122.677 62.4173C122.802 62.4682 122.902 62.5444 123.002 62.6207C123.102 62.6969 123.153 62.824 123.203 62.9511C123.253 63.0782 123.278 63.2053 123.278 63.3578C123.278 63.4849 123.253 63.612 123.203 63.7391C123.153 63.8662 123.077 63.9679 123.002 64.0696C122.902 64.1712 122.802 64.2221 122.677 64.2729C122.551 64.3237 122.426 64.3492 122.276 64.3492C122.151 64.3492 122.026 64.3237 121.9 64.2729C121.775 64.2221 121.675 64.1458 121.575 64.0696C121.475 63.9679 121.424 63.8662 121.374 63.7391C121.324 63.612 121.299 63.4849 121.299 63.3578Z" fill="white"/>
<path d="M1.33582 57.7711C1.38591 57.7965 1.46105 57.8473 1.53618 57.949L7.02105 65.1934C6.99601 65.0663 6.99601 64.9646 6.99601 64.863C6.99601 64.7613 6.99601 64.6596 6.99601 64.5325V57.7202H8.12303V67.3286H7.47186C7.37168 67.3286 7.29655 67.3032 7.22141 67.2778C7.14628 67.2523 7.09619 67.1761 7.02105 67.0998L1.53618 59.8554C1.53618 59.9571 1.56123 60.0842 1.56123 60.1859C1.56123 60.2875 1.56123 60.3892 1.56123 60.4909V67.3286H0.434204V57.7202H1.08537C1.18555 57.7202 1.26069 57.7456 1.33582 57.7711Z" fill="white"/>
<path d="M18.8684 57.7202V58.7878H14.3352V61.9906H18.0169V63.0074H14.3352V66.2864H18.8684V67.354H13.0329V57.7456H18.8684V57.7202Z" fill="white"/>
<path d="M29.8117 57.7202V58.8132H26.7562V67.3286H25.4789V58.8132H22.3983V57.7202H29.8117Z" fill="white"/>
<path d="M45.4375 57.7202V58.8132H42.382V67.3286H41.1047V58.8132H38.0242V57.7202H45.4375Z" fill="white"/>
<path d="M50.8195 63.3353V67.3515H49.5422V57.7432H52.222C52.8231 57.7432 53.349 57.794 53.7748 57.9211C54.2006 58.0482 54.5762 58.2261 54.8517 58.4549C55.1272 58.6837 55.3526 58.9633 55.4779 59.2937C55.6031 59.6242 55.6782 59.98 55.6782 60.3867C55.6782 60.7172 55.6281 61.0476 55.528 61.3272C55.4278 61.6323 55.2775 61.8865 55.0771 62.1152C54.8768 62.344 54.6263 62.5474 54.3508 62.7253C54.0753 62.9032 53.7247 63.0049 53.3741 63.1066C53.5244 63.2082 53.6746 63.3353 53.7998 63.5133L56.5548 67.3261H55.4278C55.2024 67.3261 55.0271 67.2244 54.9018 67.0465L52.4474 63.6149C52.3723 63.5133 52.2971 63.437 52.197 63.3862C52.0968 63.3353 51.9716 63.3099 51.7962 63.3099H50.8195V63.3353ZM50.8195 62.3694H52.1719C52.5476 62.3694 52.8732 62.3186 53.1487 62.2423C53.4242 62.1661 53.6746 62.0136 53.8499 61.861C54.0503 61.6831 54.1755 61.5052 54.2757 61.251C54.3759 61.0222 54.426 60.768 54.426 60.4884C54.426 59.9038 54.2507 59.4971 53.875 59.192C53.4993 58.9124 52.9483 58.7599 52.222 58.7599H50.8195V62.3694Z" fill="white"/>
<path d="M68.3524 67.3286H67.3505C67.2253 67.3286 67.1502 67.3032 67.0751 67.2523C66.9999 67.2015 66.9498 67.1252 66.9248 67.0236L66.0482 64.7104H61.7905L60.914 67.0236C60.8889 67.0998 60.8388 67.1761 60.7637 67.2269C60.6886 67.2778 60.5884 67.3286 60.4882 67.3286H59.4864L63.2682 57.7202H64.5705L68.3524 67.3286ZM62.1412 63.7699H65.6725L64.1949 59.8554C64.0947 59.6266 63.9945 59.3216 63.9194 58.9403C63.8693 59.1183 63.8192 59.2962 63.7691 59.4487C63.719 59.6012 63.6689 59.7283 63.6439 59.8554L62.1412 63.7699Z" fill="white"/>
<path d="M80.4012 62.5244C80.4012 63.2361 80.301 63.897 80.0756 64.4817C79.8502 65.0663 79.5246 65.5747 79.1239 66.0068C78.7232 66.4389 78.2223 66.744 77.6462 66.9727C77.0702 67.2015 76.4441 67.3286 75.7428 67.3286H72.2114V57.7202H75.7428C76.4441 57.7202 77.0702 57.8473 77.6462 58.0761C78.2223 58.3049 78.6981 58.6353 79.1239 59.0674C79.5246 59.4995 79.8502 60.0079 80.0756 60.5926C80.276 61.1518 80.4012 61.8127 80.4012 62.5244ZM79.0738 62.5244C79.0738 61.9398 78.9987 61.406 78.8234 60.9484C78.6731 60.4909 78.4477 60.0842 78.1471 59.7792C77.8466 59.4487 77.496 59.2199 77.0952 59.042C76.6695 58.8641 76.2187 58.7878 75.7178 58.7878H73.4637V66.2864H75.7178C76.2187 66.2864 76.6945 66.2102 77.0952 66.0322C77.521 65.8543 77.8716 65.6255 78.1471 65.2951C78.4477 64.9646 78.6731 64.5833 78.8234 64.1258C78.9987 63.6428 79.0738 63.1345 79.0738 62.5244Z" fill="white"/>
<path d="M86.3139 67.3286H85.0366V57.7202H86.3139V67.3286Z" fill="white"/>
<path d="M92.3966 57.7711C92.4467 57.7965 92.5218 57.8473 92.597 57.949L98.0819 65.1934C98.0568 65.0663 98.0568 64.9646 98.0568 64.863C98.0568 64.7613 98.0568 64.6596 98.0568 64.5325V57.7202H99.1838V67.3286H98.5327C98.4325 67.3286 98.3573 67.3032 98.2822 67.2778C98.2071 67.2523 98.157 67.1761 98.0819 67.0998L92.597 59.8554C92.597 59.9571 92.622 60.0842 92.622 60.1859C92.622 60.2875 92.622 60.3892 92.622 60.4909V67.3286H91.495V57.7202H92.1462C92.2463 57.7202 92.3465 57.7456 92.3966 57.7711Z" fill="white"/>
<path d="M108.328 66.384C108.579 66.384 108.829 66.384 109.03 66.3586C109.23 66.3332 109.455 66.3078 109.631 66.2569C109.806 66.2061 110.006 66.1552 110.157 66.079C110.332 66.0027 110.482 65.9265 110.658 65.8502V63.715H109.18C109.105 63.715 109.03 63.6896 108.98 63.6388C108.93 63.5879 108.904 63.5371 108.904 63.4608V62.7237H111.81V66.4094C111.584 66.5874 111.334 66.7399 111.058 66.867C110.783 66.9941 110.532 67.0958 110.232 67.1974C109.931 67.2737 109.631 67.3499 109.28 67.4008C108.955 67.4516 108.579 67.4516 108.178 67.4516C107.502 67.4516 106.851 67.3245 106.3 67.0958C105.724 66.867 105.223 66.5111 104.822 66.079C104.396 65.6469 104.096 65.1385 103.845 64.5284C103.62 63.9184 103.495 63.2575 103.495 62.5458C103.495 61.8086 103.62 61.1477 103.845 60.5377C104.071 59.9276 104.396 59.4192 104.822 58.9871C105.248 58.555 105.749 58.2245 106.35 57.9958C106.951 57.767 107.602 57.6399 108.353 57.6399C108.729 57.6399 109.08 57.6653 109.405 57.7161C109.731 57.767 110.032 57.8432 110.307 57.9703C110.583 58.0974 110.833 58.1991 111.058 58.3516C111.284 58.5041 111.509 58.6821 111.71 58.86L111.334 59.4446C111.259 59.5717 111.159 59.6226 111.033 59.6226C110.958 59.6226 110.883 59.5972 110.808 59.5463C110.708 59.4955 110.583 59.4192 110.432 59.3175C110.307 59.2159 110.132 59.1396 109.931 59.0634C109.731 58.9871 109.506 58.9108 109.23 58.86C108.955 58.8092 108.654 58.7837 108.278 58.7837C107.752 58.7837 107.252 58.86 106.826 59.0379C106.4 59.2159 106.024 59.4701 105.724 59.8005C105.423 60.131 105.198 60.5377 105.023 60.9952C104.847 61.4527 104.772 61.9865 104.772 62.5712C104.772 63.1812 104.847 63.715 105.023 64.198C105.198 64.6809 105.423 65.0877 105.749 65.4181C106.049 65.7485 106.425 66.0027 106.851 66.1807C107.352 66.3078 107.828 66.384 108.328 66.384Z" fill="white"/>
<path d="M121.299 63.3578C121.299 63.2307 121.324 63.0782 121.374 62.9511C121.424 62.824 121.5 62.7223 121.575 62.6207C121.675 62.519 121.775 62.4682 121.9 62.4173C122.026 62.3665 122.151 62.3411 122.276 62.3411C122.401 62.3411 122.551 62.3665 122.677 62.4173C122.802 62.4682 122.902 62.5444 123.002 62.6207C123.102 62.6969 123.153 62.824 123.203 62.9511C123.253 63.0782 123.278 63.2053 123.278 63.3578C123.278 63.4849 123.253 63.612 123.203 63.7391C123.153 63.8662 123.077 63.9679 123.002 64.0696C122.902 64.1712 122.802 64.2221 122.677 64.2729C122.551 64.3237 122.426 64.3492 122.276 64.3492C122.151 64.3492 122.026 64.3237 121.9 64.2729C121.775 64.2221 121.675 64.1458 121.575 64.0696C121.475 63.9679 121.424 63.8662 121.374 63.7391C121.324 63.612 121.299 63.4849 121.299 63.3578Z" fill="white"/>
</g>
<defs>
<clipPath id="clip0_628_99278">
<rect width="166.875" height="66.7502" fill="white" transform="translate(0.660706 0.685547)"/>
</clipPath>
</defs>
</svg>
