<svg width="21" height="21" viewBox="0 0 21 21" fill="none" xmlns="http://www.w3.org/2000/svg">
<path fill-rule="evenodd" clip-rule="evenodd" d="M18.6094 0.0224609H2.60938C1.50481 0.0224609 0.609375 0.917891 0.609375 2.02246V18.0225C0.609375 19.127 1.50481 20.0225 2.60938 20.0225H18.6094C19.7139 20.0225 20.6094 19.127 20.6094 18.0225V2.02246C20.6094 0.917891 19.7139 0.0224609 18.6094 0.0224609ZM15.9596 6.26182C16.5406 6.19466 17.0941 6.04577 17.6094 5.82451C17.2244 6.38104 16.7371 6.8699 16.1755 7.26192C16.1809 7.38114 16.1836 7.50088 16.1836 7.62114C16.1836 11.2909 13.2954 15.5225 8.01221 15.5225C6.38988 15.5225 4.88063 15.0628 3.60938 14.2751C3.83444 14.3011 4.06328 14.3141 4.29481 14.3141C5.64091 14.3141 6.87933 13.87 7.86198 13.125C6.60526 13.1027 5.54453 12.2994 5.17893 11.1962C5.35392 11.2279 5.5343 11.2456 5.71899 11.2456C5.98121 11.2456 6.23535 11.2118 6.47603 11.1483C5.1617 10.8937 4.17205 9.77127 4.17205 8.42549V8.3906C4.55918 8.59833 5.00232 8.72328 5.47292 8.73785C4.70241 8.24015 4.19574 7.38999 4.19574 6.42686C4.19574 5.91718 4.33735 5.4403 4.58395 5.03006C6.00113 6.71059 8.1172 7.81637 10.5041 7.93195C10.4557 7.72943 10.4298 7.51702 10.4298 7.2994C10.4298 5.7662 11.7156 4.52246 13.3018 4.52246C14.1278 4.52246 14.8741 4.85982 15.398 5.39969C16.0527 5.27474 16.6676 5.04359 17.2222 4.7255C17.0079 5.37418 16.553 5.91822 15.9596 6.26182Z" fill="#D1E9FF"/>
</svg>
