<svg width="60" height="53" viewBox="0 0 60 53" fill="none" xmlns="http://www.w3.org/2000/svg">
<path d="M52.2 9.04768C54.7159 7.40433 56.5984 4.81669 57.496 1.76791C55.1319 3.30053 52.5453 4.38015 49.848 4.96009C46.1085 0.638008 40.1836 -0.413791 35.384 2.39241C30.5844 5.19862 28.0984 11.1681 29.315 16.9653C19.6312 16.4341 10.609 11.4362 4.4935 3.21528C1.30196 9.22989 2.9329 16.9186 8.22066 20.7861C6.30855 20.7189 4.43885 20.1533 2.76745 19.1363C2.76745 19.1915 2.76745 19.2467 2.76745 19.3019C2.76855 25.5671 6.80999 30.9639 12.4305 32.2055C10.657 32.7327 8.79659 32.8104 6.99137 32.4325C8.57204 37.7904 13.0916 41.461 18.243 41.5705C13.9765 45.2292 8.70753 47.2133 3.28386 47.2036C2.32252 47.2051 1.36194 47.1447 0.407104 47.0226C5.91473 50.8895 12.3249 52.942 18.8717 52.9348C27.9798 53.0031 36.7329 49.0799 43.1732 42.0428C49.6135 35.0056 53.2035 25.4417 53.1402 15.4903C53.1402 14.9199 53.128 14.3526 53.1037 13.7884C55.4625 11.9259 57.4983 9.61849 59.1154 6.97475C56.9179 8.039 54.5869 8.73773 52.2 9.04768Z" fill="white"/>
</svg>
