<svg width="826" height="632" viewBox="0 0 826 632" fill="none" xmlns="http://www.w3.org/2000/svg">
<mask id="mask0_797_95160" style="mask-type:alpha" maskUnits="userSpaceOnUse" x="70" y="0" width="632" height="632">
<line x1="113.26" y1="0.576904" x2="113.26" y2="631.859" stroke="#49556B" stroke-width="0.815118"/>
<line x1="70.2068" y1="588.806" x2="701.489" y2="588.806" stroke="#49556B" stroke-width="0.815118"/>
<line x1="140.56" y1="0.576904" x2="140.56" y2="631.859" stroke="#49556B" stroke-width="0.815118"/>
<line x1="70.2068" y1="561.506" x2="701.489" y2="561.506" stroke="#49556B" stroke-width="0.815118"/>
<line x1="167.859" y1="0.576904" x2="167.859" y2="631.859" stroke="#49556B" stroke-width="0.815118"/>
<line x1="70.2068" y1="534.206" x2="701.489" y2="534.206" stroke="#49556B" stroke-width="0.815118"/>
<line x1="195.156" y1="0.576904" x2="195.156" y2="631.859" stroke="#49556B" stroke-width="0.815118"/>
<line x1="70.2068" y1="506.907" x2="701.489" y2="506.907" stroke="#49556B" stroke-width="0.815118"/>
<line x1="222.456" y1="0.576904" x2="222.456" y2="631.859" stroke="#49556B" stroke-width="0.815118"/>
<line x1="70.2068" y1="479.607" x2="701.489" y2="479.607" stroke="#49556B" stroke-width="0.815118"/>
<line x1="249.756" y1="0.576904" x2="249.756" y2="631.859" stroke="#49556B" stroke-width="0.815118"/>
<line x1="70.2068" y1="452.307" x2="701.489" y2="452.307" stroke="#49556B" stroke-width="0.815118"/>
<line x1="277.055" y1="0.576904" x2="277.055" y2="631.859" stroke="#49556B" stroke-width="0.815118"/>
<line x1="70.2068" y1="425.007" x2="701.489" y2="425.007" stroke="#49556B" stroke-width="0.815118"/>
<line x1="304.355" y1="0.576904" x2="304.355" y2="631.859" stroke="#49556B" stroke-width="0.815118"/>
<line x1="70.2068" y1="397.708" x2="701.489" y2="397.708" stroke="#49556B" stroke-width="0.815118"/>
<line x1="331.655" y1="0.576904" x2="331.655" y2="631.859" stroke="#49556B" stroke-width="0.815118"/>
<line x1="70.2068" y1="370.408" x2="701.489" y2="370.408" stroke="#49556B" stroke-width="0.815118"/>
<line x1="358.954" y1="0.576904" x2="358.954" y2="631.859" stroke="#49556B" stroke-width="0.815118"/>
<line x1="70.2068" y1="343.109" x2="701.489" y2="343.109" stroke="#49556B" stroke-width="0.815118"/>
<line x1="386.254" y1="0.576904" x2="386.254" y2="631.859" stroke="#49556B" stroke-width="0.815118"/>
<line x1="70.2068" y1="315.809" x2="701.489" y2="315.809" stroke="#49556B" stroke-width="0.815118"/>
<line x1="413.554" y1="0.576904" x2="413.554" y2="631.859" stroke="#49556B" stroke-width="0.815118"/>
<line x1="70.2068" y1="288.509" x2="701.489" y2="288.509" stroke="#49556B" stroke-width="0.815118"/>
<line x1="440.853" y1="0.576904" x2="440.853" y2="631.859" stroke="#49556B" stroke-width="0.815118"/>
<line x1="70.2068" y1="261.21" x2="701.489" y2="261.21" stroke="#49556B" stroke-width="0.815118"/>
<line x1="468.153" y1="0.576904" x2="468.153" y2="631.859" stroke="#49556B" stroke-width="0.815118"/>
<line x1="70.2068" y1="233.91" x2="701.489" y2="233.91" stroke="#49556B" stroke-width="0.815118"/>
<line x1="495.452" y1="0.576904" x2="495.452" y2="631.859" stroke="#49556B" stroke-width="0.815118"/>
<line x1="70.2068" y1="206.61" x2="701.489" y2="206.61" stroke="#49556B" stroke-width="0.815118"/>
<line x1="522.752" y1="0.576904" x2="522.752" y2="631.859" stroke="#49556B" stroke-width="0.815118"/>
<line x1="70.2068" y1="179.311" x2="701.489" y2="179.311" stroke="#49556B" stroke-width="0.815118"/>
<line x1="550.052" y1="0.576904" x2="550.052" y2="631.859" stroke="#49556B" stroke-width="0.815118"/>
<line x1="70.2068" y1="152.014" x2="701.489" y2="152.014" stroke="#49556B" stroke-width="0.815118"/>
<line x1="577.352" y1="0.576904" x2="577.352" y2="631.859" stroke="#49556B" stroke-width="0.815118"/>
<line x1="70.2068" y1="124.714" x2="701.489" y2="124.714" stroke="#49556B" stroke-width="0.815118"/>
<line x1="604.65" y1="0.576904" x2="604.65" y2="631.859" stroke="#49556B" stroke-width="0.815118"/>
<line x1="70.2068" y1="97.4147" x2="701.489" y2="97.4147" stroke="#49556B" stroke-width="0.815118"/>
<line x1="631.95" y1="0.576904" x2="631.95" y2="631.859" stroke="#49556B" stroke-width="0.815118"/>
<line x1="70.2068" y1="70.1151" x2="701.489" y2="70.1151" stroke="#49556B" stroke-width="0.815118"/>
<line x1="659.249" y1="0.576904" x2="659.249" y2="631.859" stroke="#49556B" stroke-width="0.815118"/>
<line x1="70.2068" y1="42.8153" x2="701.489" y2="42.8153" stroke="#49556B" stroke-width="0.815118"/>
</mask>
<g mask="url(#mask0_797_95160)">
<g filter="url(#filter0_f_797_95160)">
<ellipse cx="391.458" cy="350.049" rx="245.695" ry="115.732" fill="#24455D"/>
</g>
</g>
<g opacity="0.5" filter="url(#filter1_f_797_95160)">
<ellipse cx="249.4" cy="370.42" rx="73.4554" ry="59.7539" fill="#87BEFF"/>
</g>
<g opacity="0.5" filter="url(#filter2_f_797_95160)">
<ellipse cx="575.973" cy="370.42" rx="73.4554" ry="59.7539" fill="#87BEFF"/>
</g>
<g filter="url(#filter3_f_797_95160)">
<path d="M333.215 325.588C337.823 328.249 340.662 333.166 340.662 338.487L340.662 400.121C340.662 405.442 337.823 410.359 333.215 413.02L279.839 443.837C275.23 446.497 269.553 446.497 264.944 443.837L211.568 413.02C206.959 410.359 204.121 405.442 204.121 400.121L204.121 338.487C204.121 333.166 206.959 328.249 211.568 325.588L264.944 294.771C269.553 292.111 275.23 292.111 279.839 294.771L333.215 325.588Z" fill="url(#paint0_linear_797_95160)"/>
<path d="M336.818 338.487L336.818 400.121C336.818 404.069 334.712 407.717 331.293 409.691L277.917 440.508C274.498 442.482 270.285 442.482 266.866 440.508L213.49 409.691C210.071 407.717 207.964 404.069 207.964 400.121L207.964 338.487C207.964 334.539 210.071 330.891 213.49 328.917L266.866 298.1C270.285 296.126 274.498 296.126 277.917 298.1L331.293 328.917C334.712 330.891 336.818 334.539 336.818 338.487Z" stroke="url(#paint1_linear_797_95160)" stroke-width="7.68743"/>
</g>
<g filter="url(#filter4_b_797_95160)">
<path d="M264.944 294.772C269.552 292.111 275.23 292.111 279.838 294.772L333.215 325.588C337.823 328.249 340.662 333.166 340.662 338.487V400.121C340.662 405.442 337.823 410.359 333.215 413.02L279.838 443.837C275.23 446.498 269.552 446.498 264.944 443.837L211.567 413.02C206.959 410.359 204.12 405.442 204.12 400.121V338.487C204.12 333.166 206.959 328.249 211.567 325.588L264.944 294.772Z" fill="#091334"/>
</g>
<g filter="url(#filter5_b_797_95160)">
<path d="M278.813 296.548L332.189 327.365C336.163 329.659 338.611 333.899 338.611 338.487V400.121C338.611 404.71 336.163 408.95 332.189 411.244L278.813 442.061C274.839 444.355 269.943 444.355 265.969 442.061L212.593 411.244C208.619 408.95 206.171 404.71 206.171 400.121V338.487C206.171 333.899 208.619 329.659 212.593 327.365L265.969 296.548C269.943 294.253 274.839 294.253 278.813 296.548Z" stroke="url(#paint2_linear_797_95160)" stroke-width="4.10176"/>
</g>
<g filter="url(#filter6_f_797_95160)">
<path d="M614.724 325.588C619.333 328.249 622.171 333.166 622.171 338.487L622.171 400.121C622.171 405.442 619.333 410.359 614.724 413.02L561.348 443.837C556.739 446.497 551.062 446.497 546.453 443.837L493.077 413.02C488.469 410.359 485.63 405.442 485.63 400.121L485.63 338.487C485.63 333.166 488.469 328.249 493.077 325.588L546.453 294.771C551.062 292.111 556.739 292.111 561.348 294.771L614.724 325.588Z" fill="url(#paint3_linear_797_95160)"/>
<path d="M618.328 338.487L618.328 400.121C618.328 404.069 616.221 407.717 612.802 409.691L559.426 440.508C556.007 442.482 551.794 442.482 548.375 440.508L494.999 409.691C491.58 407.717 489.474 404.069 489.474 400.121L489.474 338.487C489.474 334.539 491.58 330.891 494.999 328.917L548.375 298.1C551.794 296.126 556.007 296.126 559.426 298.1L612.802 328.917C616.221 330.891 618.328 334.539 618.328 338.487Z" stroke="url(#paint4_linear_797_95160)" stroke-width="7.68743"/>
</g>
<g filter="url(#filter7_b_797_95160)">
<path d="M546.453 294.772C551.062 292.111 556.739 292.111 561.348 294.772L614.724 325.588C619.333 328.249 622.171 333.166 622.171 338.487V400.121C622.171 405.442 619.333 410.359 614.724 413.02L561.348 443.837C556.739 446.498 551.062 446.498 546.453 443.837L493.077 413.02C488.469 410.359 485.63 405.442 485.63 400.121V338.487C485.63 333.166 488.469 328.249 493.077 325.588L546.453 294.772Z" fill="#091334"/>
</g>
<g filter="url(#filter8_b_797_95160)">
<path d="M560.322 296.548L613.699 327.365C617.673 329.659 620.121 333.899 620.121 338.487V400.121C620.121 404.71 617.673 408.95 613.699 411.244L560.322 442.061C556.349 444.355 551.453 444.355 547.479 442.061L494.102 411.244C490.129 408.95 487.681 404.71 487.681 400.121V338.487C487.681 333.899 490.129 329.659 494.102 327.365L547.479 296.548C551.453 294.253 556.349 294.253 560.322 296.548Z" stroke="url(#paint5_linear_797_95160)" stroke-width="4.10176"/>
</g>
<g filter="url(#filter9_f_797_95160)">
<path d="M360.81 370.42L465.026 370.42" stroke="url(#paint6_linear_797_95160)" stroke-width="3.0892" stroke-linecap="round"/>
</g>
<path d="M360.81 370.42L465.026 370.42" stroke="url(#paint7_linear_797_95160)" stroke-width="3.0892" stroke-linecap="round"/>
<path d="M414.257 391.076C403.162 391.076 394.164 382.079 394.164 370.983C394.164 359.888 403.162 350.89 414.257 350.89C425.352 350.89 434.35 359.888 434.35 370.983C434.35 382.079 425.352 391.076 414.257 391.076Z" fill="#8DC2FF"/>
<rect x="405.44" y="369.101" width="17.6327" height="13.4786" rx="1.48305" fill="#020613"/>
<path d="M408.782 369.086V367.048C408.782 364.036 411.223 361.594 414.235 361.594V361.594C417.247 361.594 419.689 364.036 419.689 367.048V369.086" stroke="#020613" stroke-width="2.74936"/>
<g filter="url(#filter10_f_797_95160)">
<path d="M463.83 368.487L461.174 365.823C460.876 365.517 460.708 365.106 460.708 364.677C460.708 364.249 460.876 363.838 461.174 363.532C461.321 363.376 461.498 363.252 461.694 363.167C461.891 363.083 462.102 363.039 462.316 363.039C462.532 363.04 462.745 363.084 462.943 363.169C463.142 363.254 463.321 363.377 463.471 363.532L468.903 369.006C469.054 369.157 469.174 369.336 469.256 369.534C469.338 369.732 469.38 369.944 469.38 370.158C469.38 370.372 469.338 370.584 469.256 370.782C469.174 370.98 469.054 371.159 468.903 371.31L463.445 376.784C463.294 376.935 463.115 377.055 462.918 377.137C462.721 377.219 462.509 377.261 462.296 377.261C462.083 377.261 461.871 377.219 461.674 377.137C461.477 377.055 461.298 376.935 461.147 376.784C460.997 376.633 460.877 376.453 460.795 376.255C460.714 376.058 460.672 375.846 460.672 375.632C460.672 375.418 460.714 375.206 460.795 375.009C460.877 374.811 460.997 374.631 461.147 374.48L463.803 371.816L465.423 370.191L463.83 368.487Z" fill="#9FEDE3"/>
</g>
<g filter="url(#filter11_f_797_95160)">
<path d="M362.245 368.487L364.9 365.823C365.199 365.517 365.366 365.106 365.366 364.677C365.366 364.249 365.199 363.838 364.9 363.532C364.754 363.376 364.577 363.252 364.38 363.167C364.184 363.083 363.972 363.039 363.758 363.039C363.543 363.04 363.33 363.084 363.131 363.169C362.933 363.254 362.753 363.377 362.603 363.532L357.172 369.006C357.02 369.157 356.9 369.336 356.818 369.534C356.736 369.732 356.694 369.944 356.694 370.158C356.694 370.372 356.736 370.584 356.818 370.782C356.9 370.98 357.02 371.159 357.172 371.31L362.63 376.784C362.781 376.935 362.96 377.055 363.157 377.137C363.354 377.219 363.565 377.261 363.778 377.261C363.992 377.261 364.203 377.219 364.4 377.137C364.597 377.055 364.776 376.935 364.927 376.784C365.078 376.633 365.198 376.453 365.279 376.255C365.361 376.058 365.403 375.846 365.403 375.632C365.403 375.418 365.361 375.206 365.279 375.009C365.198 374.811 365.078 374.631 364.927 374.48L362.271 371.816L360.651 370.191L362.245 368.487Z" fill="#9FEDE3"/>
</g>
<path d="M463.83 368.487L461.174 365.823C460.876 365.517 460.708 365.106 460.708 364.677C460.708 364.249 460.876 363.838 461.174 363.532C461.321 363.376 461.498 363.252 461.694 363.167C461.891 363.083 462.102 363.039 462.316 363.039C462.532 363.04 462.745 363.084 462.943 363.169C463.142 363.254 463.321 363.377 463.471 363.532L468.903 369.006C469.054 369.157 469.174 369.336 469.256 369.534C469.338 369.732 469.38 369.944 469.38 370.158C469.38 370.372 469.338 370.584 469.256 370.782C469.174 370.98 469.054 371.159 468.903 371.31L463.445 376.784C463.294 376.935 463.115 377.055 462.918 377.137C462.721 377.219 462.509 377.261 462.296 377.261C462.083 377.261 461.871 377.219 461.674 377.137C461.477 377.055 461.298 376.935 461.147 376.784C460.997 376.633 460.877 376.453 460.795 376.255C460.714 376.058 460.672 375.846 460.672 375.632C460.672 375.418 460.714 375.206 460.795 375.009C460.877 374.811 460.997 374.631 461.147 374.48L463.803 371.816L465.423 370.191L463.83 368.487Z" fill="#9FEDE3"/>
<path d="M362.245 368.487L364.9 365.823C365.199 365.517 365.366 365.106 365.366 364.677C365.366 364.249 365.199 363.838 364.9 363.532C364.754 363.376 364.577 363.252 364.38 363.167C364.184 363.083 363.972 363.039 363.758 363.039C363.543 363.04 363.33 363.084 363.131 363.169C362.933 363.254 362.753 363.377 362.603 363.532L357.172 369.006C357.02 369.157 356.9 369.336 356.818 369.534C356.736 369.732 356.694 369.944 356.694 370.158C356.694 370.372 356.736 370.584 356.818 370.782C356.9 370.98 357.02 371.159 357.172 371.31L362.63 376.784C362.781 376.935 362.96 377.055 363.157 377.137C363.354 377.219 363.565 377.261 363.778 377.261C363.992 377.261 364.203 377.219 364.4 377.137C364.597 377.055 364.776 376.935 364.927 376.784C365.078 376.633 365.198 376.453 365.279 376.255C365.361 376.058 365.403 375.846 365.403 375.632C365.403 375.418 365.361 375.206 365.279 375.009C365.198 374.811 365.078 374.631 364.927 374.48L362.271 371.816L360.651 370.191L362.245 368.487Z" fill="#9FEDE3"/>
<path d="M562.488 382.26C565.407 383.803 571.546 385.413 571.646 385.48C571.78 385.547 573.676 385.899 577.433 387.661C581.173 389.422 581.375 393.246 581.375 393.246V399.452L553.9 399.469L526.426 399.452V393.246C526.426 393.246 526.627 389.422 530.368 387.661C534.108 385.899 536.02 385.547 536.154 385.48C536.272 385.413 542.394 383.803 545.313 382.26C545.38 382.226 545.447 382.193 545.514 382.142C545.514 382.142 545.531 382.142 545.531 382.126C546.151 381.723 546.52 381.035 546.52 380.314V377.496V376.641C536.758 376.725 533.873 372.548 533.873 372.548C533.873 372.548 539.442 372.464 539.106 357.754C538.754 343.044 545.531 340.612 548.063 339.656C555.427 336.855 559.117 341.317 559.117 341.317C567.638 340.528 570.003 349.837 568.946 360.455C567.906 371.072 573.726 372.716 573.726 372.716C569.717 376.808 561.281 376.641 561.281 376.641V377.496V380.314C561.281 381.052 561.65 381.74 562.27 382.126L562.488 382.26Z" fill="url(#paint8_linear_797_95160)"/>
<path d="M562.488 382.26C565.407 383.803 571.546 385.413 571.646 385.48C571.78 385.547 573.676 385.899 577.433 387.661C581.173 389.422 581.375 393.246 581.375 393.246V399.452L553.9 399.469L526.426 399.452V393.246C526.426 393.246 526.627 389.422 530.368 387.661C534.108 385.899 536.02 385.547 536.154 385.48C536.272 385.413 542.394 383.803 545.313 382.26C545.38 382.226 545.447 382.193 545.514 382.142C545.514 382.142 545.531 382.142 545.531 382.126C546.151 381.723 546.52 381.035 546.52 380.314V377.496V376.641C536.758 376.725 533.873 372.548 533.873 372.548C533.873 372.548 539.442 372.464 539.106 357.754C538.754 343.044 545.531 340.612 548.063 339.656C555.427 336.855 559.117 341.317 559.117 341.317C567.638 340.528 570.003 349.837 568.946 360.455C567.906 371.072 573.726 372.716 573.726 372.716C569.717 376.808 561.281 376.641 561.281 376.641V377.496V380.314C561.281 381.052 561.65 381.74 562.27 382.126L562.488 382.26Z" fill="url(#paint9_linear_797_95160)" fill-opacity="0.2"/>
<path d="M301.77 391.181C301.77 389.441 301.012 387.769 299.668 386.666C292.172 380.498 284.074 376.397 282.42 375.604C282.23 375.518 282.127 375.329 282.127 375.122V369.539C283.005 368.023 283.574 366.42 283.798 364.956C284.436 364.904 285.28 364.008 286.193 360.803C287.382 356.564 286.21 355.823 285.125 355.875C287.83 343.469 280.869 343.435 280.869 343.435C280.283 340.833 276.596 338.128 273.15 338.851C269.703 339.558 262.604 338.765 262.604 338.765C262.501 340.264 263.793 341.315 263.793 341.315C257.556 345.123 258.986 353.497 259.555 355.892C258.486 355.892 257.401 356.702 258.555 360.838C259.468 364.043 260.313 364.939 260.95 364.99C261.174 366.438 261.743 368.04 262.622 369.574V375.122C262.622 375.329 262.501 375.518 262.329 375.604C260.692 376.414 252.593 380.498 245.081 386.666C243.737 387.769 242.979 389.441 242.979 391.181V399.469H301.804V391.181H301.77Z" fill="url(#paint10_linear_797_95160)"/>
<path d="M301.77 391.181C301.77 389.441 301.012 387.769 299.668 386.666C292.172 380.498 284.074 376.397 282.42 375.604C282.23 375.518 282.127 375.329 282.127 375.122V369.539C283.005 368.023 283.574 366.42 283.798 364.956C284.436 364.904 285.28 364.008 286.193 360.803C287.382 356.564 286.21 355.823 285.125 355.875C287.83 343.469 280.869 343.435 280.869 343.435C280.283 340.833 276.596 338.128 273.15 338.851C269.703 339.558 262.604 338.765 262.604 338.765C262.501 340.264 263.793 341.315 263.793 341.315C257.556 345.123 258.986 353.497 259.555 355.892C258.486 355.892 257.401 356.702 258.555 360.838C259.468 364.043 260.313 364.939 260.95 364.99C261.174 366.438 261.743 368.04 262.622 369.574V375.122C262.622 375.329 262.501 375.518 262.329 375.604C260.692 376.414 252.593 380.498 245.081 386.666C243.737 387.769 242.979 389.441 242.979 391.181V399.469H301.804V391.181H301.77Z" fill="url(#paint11_linear_797_95160)" fill-opacity="0.2"/>
<defs>
<filter id="filter0_f_797_95160" x="-5.42636" y="83.1283" width="793.769" height="533.842" filterUnits="userSpaceOnUse" color-interpolation-filters="sRGB">
<feFlood flood-opacity="0" result="BackgroundImageFix"/>
<feBlend mode="normal" in="SourceGraphic" in2="BackgroundImageFix" result="shape"/>
<feGaussianBlur stdDeviation="75.5945" result="effect1_foregroundBlur_797_95160"/>
</filter>
<filter id="filter1_f_797_95160" x="0.344025" y="135.066" width="498.111" height="470.708" filterUnits="userSpaceOnUse" color-interpolation-filters="sRGB">
<feFlood flood-opacity="0" result="BackgroundImageFix"/>
<feBlend mode="normal" in="SourceGraphic" in2="BackgroundImageFix" result="shape"/>
<feGaussianBlur stdDeviation="87.8001" result="effect1_foregroundBlur_797_95160"/>
</filter>
<filter id="filter2_f_797_95160" x="326.918" y="135.066" width="498.111" height="470.708" filterUnits="userSpaceOnUse" color-interpolation-filters="sRGB">
<feFlood flood-opacity="0" result="BackgroundImageFix"/>
<feBlend mode="normal" in="SourceGraphic" in2="BackgroundImageFix" result="shape"/>
<feGaussianBlur stdDeviation="87.8001" result="effect1_foregroundBlur_797_95160"/>
</filter>
<filter id="filter3_f_797_95160" x="196.914" y="285.569" width="150.956" height="167.47" filterUnits="userSpaceOnUse" color-interpolation-filters="sRGB">
<feFlood flood-opacity="0" result="BackgroundImageFix"/>
<feBlend mode="normal" in="SourceGraphic" in2="BackgroundImageFix" result="shape"/>
<feGaussianBlur stdDeviation="3.60348" result="effect1_foregroundBlur_797_95160"/>
</filter>
<filter id="filter4_b_797_95160" x="200.277" y="288.932" width="144.229" height="160.744" filterUnits="userSpaceOnUse" color-interpolation-filters="sRGB">
<feFlood flood-opacity="0" result="BackgroundImageFix"/>
<feGaussianBlur in="BackgroundImageFix" stdDeviation="1.92186"/>
<feComposite in2="SourceAlpha" operator="in" result="effect1_backgroundBlur_797_95160"/>
<feBlend mode="normal" in="SourceGraphic" in2="effect1_backgroundBlur_797_95160" result="shape"/>
</filter>
<filter id="filter5_b_797_95160" x="200.277" y="288.932" width="144.229" height="160.744" filterUnits="userSpaceOnUse" color-interpolation-filters="sRGB">
<feFlood flood-opacity="0" result="BackgroundImageFix"/>
<feGaussianBlur in="BackgroundImageFix" stdDeviation="1.92186"/>
<feComposite in2="SourceAlpha" operator="in" result="effect1_backgroundBlur_797_95160"/>
<feBlend mode="normal" in="SourceGraphic" in2="effect1_backgroundBlur_797_95160" result="shape"/>
</filter>
<filter id="filter6_f_797_95160" x="478.423" y="285.569" width="150.956" height="167.47" filterUnits="userSpaceOnUse" color-interpolation-filters="sRGB">
<feFlood flood-opacity="0" result="BackgroundImageFix"/>
<feBlend mode="normal" in="SourceGraphic" in2="BackgroundImageFix" result="shape"/>
<feGaussianBlur stdDeviation="3.60348" result="effect1_foregroundBlur_797_95160"/>
</filter>
<filter id="filter7_b_797_95160" x="481.786" y="288.932" width="144.229" height="160.744" filterUnits="userSpaceOnUse" color-interpolation-filters="sRGB">
<feFlood flood-opacity="0" result="BackgroundImageFix"/>
<feGaussianBlur in="BackgroundImageFix" stdDeviation="1.92186"/>
<feComposite in2="SourceAlpha" operator="in" result="effect1_backgroundBlur_797_95160"/>
<feBlend mode="normal" in="SourceGraphic" in2="effect1_backgroundBlur_797_95160" result="shape"/>
</filter>
<filter id="filter8_b_797_95160" x="481.786" y="288.932" width="144.229" height="160.744" filterUnits="userSpaceOnUse" color-interpolation-filters="sRGB">
<feFlood flood-opacity="0" result="BackgroundImageFix"/>
<feGaussianBlur in="BackgroundImageFix" stdDeviation="1.92186"/>
<feComposite in2="SourceAlpha" operator="in" result="effect1_backgroundBlur_797_95160"/>
<feBlend mode="normal" in="SourceGraphic" in2="effect1_backgroundBlur_797_95160" result="shape"/>
</filter>
<filter id="filter9_f_797_95160" x="352.6" y="362.21" width="120.636" height="16.4203" filterUnits="userSpaceOnUse" color-interpolation-filters="sRGB">
<feFlood flood-opacity="0" result="BackgroundImageFix"/>
<feBlend mode="normal" in="SourceGraphic" in2="BackgroundImageFix" result="shape"/>
<feGaussianBlur stdDeviation="3.33273" result="effect1_foregroundBlur_797_95160"/>
</filter>
<filter id="filter10_f_797_95160" x="456.228" y="358.596" width="17.5959" height="23.1092" filterUnits="userSpaceOnUse" color-interpolation-filters="sRGB">
<feFlood flood-opacity="0" result="BackgroundImageFix"/>
<feBlend mode="normal" in="SourceGraphic" in2="BackgroundImageFix" result="shape"/>
<feGaussianBlur stdDeviation="2.22182" result="effect1_foregroundBlur_797_95160"/>
</filter>
<filter id="filter11_f_797_95160" x="352.251" y="358.596" width="17.5959" height="23.1092" filterUnits="userSpaceOnUse" color-interpolation-filters="sRGB">
<feFlood flood-opacity="0" result="BackgroundImageFix"/>
<feBlend mode="normal" in="SourceGraphic" in2="BackgroundImageFix" result="shape"/>
<feGaussianBlur stdDeviation="2.22182" result="effect1_foregroundBlur_797_95160"/>
</filter>
<linearGradient id="paint0_linear_797_95160" x1="301.246" y1="261.617" x2="373.899" y2="401.371" gradientUnits="userSpaceOnUse">
<stop stop-color="#3669E6"/>
<stop offset="1" stop-color="#A0EFE1"/>
</linearGradient>
<linearGradient id="paint1_linear_797_95160" x1="301.246" y1="261.617" x2="373.899" y2="401.371" gradientUnits="userSpaceOnUse">
<stop stop-color="#3669E6"/>
<stop offset="1" stop-color="#A0EFE1"/>
</linearGradient>
<linearGradient id="paint2_linear_797_95160" x1="269.719" y1="290.472" x2="265.552" y2="445.13" gradientUnits="userSpaceOnUse">
<stop stop-color="#3669E6"/>
<stop offset="1" stop-color="#A0EFE1"/>
</linearGradient>
<linearGradient id="paint3_linear_797_95160" x1="582.755" y1="261.617" x2="655.408" y2="401.371" gradientUnits="userSpaceOnUse">
<stop stop-color="#3669E6"/>
<stop offset="1" stop-color="#A0EFE1"/>
</linearGradient>
<linearGradient id="paint4_linear_797_95160" x1="582.755" y1="261.617" x2="655.408" y2="401.371" gradientUnits="userSpaceOnUse">
<stop stop-color="#3669E6"/>
<stop offset="1" stop-color="#A0EFE1"/>
</linearGradient>
<linearGradient id="paint5_linear_797_95160" x1="551.229" y1="290.472" x2="547.062" y2="445.13" gradientUnits="userSpaceOnUse">
<stop stop-color="#3669E6"/>
<stop offset="1" stop-color="#A0EFE1"/>
</linearGradient>
<linearGradient id="paint6_linear_797_95160" x1="360.81" y1="370.42" x2="365.496" y2="392.018" gradientUnits="userSpaceOnUse">
<stop stop-color="#82BCFF"/>
<stop offset="1" stop-color="#A0EFE1"/>
</linearGradient>
<linearGradient id="paint7_linear_797_95160" x1="360.81" y1="370.42" x2="365.496" y2="392.018" gradientUnits="userSpaceOnUse">
<stop stop-color="#82BCFF"/>
<stop offset="1" stop-color="#A0EFE1"/>
</linearGradient>
<linearGradient id="paint8_linear_797_95160" x1="553.9" y1="338.732" x2="555.016" y2="399.465" gradientUnits="userSpaceOnUse">
<stop offset="0.429396" stop-color="#E2ECFF"/>
<stop offset="1" stop-color="#5F6779"/>
</linearGradient>
<linearGradient id="paint9_linear_797_95160" x1="553.9" y1="338.732" x2="553.9" y2="399.469" gradientUnits="userSpaceOnUse">
<stop stop-color="white"/>
<stop offset="1" stop-color="white" stop-opacity="0"/>
</linearGradient>
<linearGradient id="paint10_linear_797_95160" x1="272.391" y1="338.732" x2="273.434" y2="399.468" gradientUnits="userSpaceOnUse">
<stop offset="0.429396" stop-color="#E2ECFF"/>
<stop offset="1" stop-color="#5F6779"/>
</linearGradient>
<linearGradient id="paint11_linear_797_95160" x1="272.391" y1="338.732" x2="272.391" y2="399.469" gradientUnits="userSpaceOnUse">
<stop stop-color="white"/>
<stop offset="1" stop-color="white" stop-opacity="0"/>
</linearGradient>
</defs>
</svg>
