<svg width="735" height="633" viewBox="0 0 735 633" fill="none" xmlns="http://www.w3.org/2000/svg">
<mask id="mask0_628_98715" style="mask-type:alpha" maskUnits="userSpaceOnUse" x="24" y="0" width="632" height="633">
<line x1="67.2603" y1="0.811035" x2="67.2603" y2="632.093" stroke="#49556B" stroke-width="0.815118"/>
<line x1="24.207" y1="589.04" x2="655.489" y2="589.04" stroke="#49556B" stroke-width="0.815118"/>
<line x1="94.5601" y1="0.811035" x2="94.5601" y2="632.093" stroke="#49556B" stroke-width="0.815118"/>
<line x1="24.207" y1="561.74" x2="655.489" y2="561.74" stroke="#49556B" stroke-width="0.815118"/>
<line x1="121.86" y1="0.811035" x2="121.86" y2="632.093" stroke="#49556B" stroke-width="0.815118"/>
<line x1="24.207" y1="534.44" x2="655.489" y2="534.44" stroke="#49556B" stroke-width="0.815118"/>
<line x1="149.156" y1="0.811035" x2="149.156" y2="632.093" stroke="#49556B" stroke-width="0.815118"/>
<line x1="24.207" y1="507.141" x2="655.489" y2="507.141" stroke="#49556B" stroke-width="0.815118"/>
<line x1="176.456" y1="0.811035" x2="176.456" y2="632.093" stroke="#49556B" stroke-width="0.815118"/>
<line x1="24.207" y1="479.841" x2="655.489" y2="479.841" stroke="#49556B" stroke-width="0.815118"/>
<line x1="203.756" y1="0.811035" x2="203.756" y2="632.093" stroke="#49556B" stroke-width="0.815118"/>
<line x1="24.207" y1="452.541" x2="655.489" y2="452.541" stroke="#49556B" stroke-width="0.815118"/>
<line x1="231.055" y1="0.811035" x2="231.055" y2="632.093" stroke="#49556B" stroke-width="0.815118"/>
<line x1="24.207" y1="425.242" x2="655.489" y2="425.242" stroke="#49556B" stroke-width="0.815118"/>
<line x1="258.355" y1="0.811035" x2="258.355" y2="632.093" stroke="#49556B" stroke-width="0.815118"/>
<line x1="24.207" y1="397.942" x2="655.489" y2="397.942" stroke="#49556B" stroke-width="0.815118"/>
<line x1="285.655" y1="0.811035" x2="285.655" y2="632.093" stroke="#49556B" stroke-width="0.815118"/>
<line x1="24.207" y1="370.642" x2="655.489" y2="370.642" stroke="#49556B" stroke-width="0.815118"/>
<line x1="312.954" y1="0.811035" x2="312.954" y2="632.093" stroke="#49556B" stroke-width="0.815118"/>
<line x1="24.207" y1="343.343" x2="655.489" y2="343.343" stroke="#49556B" stroke-width="0.815118"/>
<line x1="340.254" y1="0.811035" x2="340.254" y2="632.093" stroke="#49556B" stroke-width="0.815118"/>
<line x1="24.207" y1="316.043" x2="655.489" y2="316.043" stroke="#49556B" stroke-width="0.815118"/>
<line x1="367.554" y1="0.811035" x2="367.554" y2="632.093" stroke="#49556B" stroke-width="0.815118"/>
<line x1="24.207" y1="288.744" x2="655.489" y2="288.744" stroke="#49556B" stroke-width="0.815118"/>
<line x1="394.853" y1="0.811035" x2="394.853" y2="632.093" stroke="#49556B" stroke-width="0.815118"/>
<line x1="24.207" y1="261.444" x2="655.489" y2="261.444" stroke="#49556B" stroke-width="0.815118"/>
<line x1="422.153" y1="0.811035" x2="422.153" y2="632.093" stroke="#49556B" stroke-width="0.815118"/>
<line x1="24.207" y1="234.144" x2="655.489" y2="234.144" stroke="#49556B" stroke-width="0.815118"/>
<line x1="449.453" y1="0.811035" x2="449.453" y2="632.093" stroke="#49556B" stroke-width="0.815118"/>
<line x1="24.207" y1="206.844" x2="655.489" y2="206.844" stroke="#49556B" stroke-width="0.815118"/>
<line x1="476.752" y1="0.811035" x2="476.752" y2="632.093" stroke="#49556B" stroke-width="0.815118"/>
<line x1="24.207" y1="179.545" x2="655.489" y2="179.545" stroke="#49556B" stroke-width="0.815118"/>
<line x1="504.052" y1="0.811035" x2="504.052" y2="632.093" stroke="#49556B" stroke-width="0.815118"/>
<line x1="24.207" y1="152.248" x2="655.489" y2="152.248" stroke="#49556B" stroke-width="0.815118"/>
<line x1="531.352" y1="0.811035" x2="531.352" y2="632.093" stroke="#49556B" stroke-width="0.815118"/>
<line x1="24.207" y1="124.948" x2="655.489" y2="124.948" stroke="#49556B" stroke-width="0.815118"/>
<line x1="558.651" y1="0.811035" x2="558.651" y2="632.093" stroke="#49556B" stroke-width="0.815118"/>
<line x1="24.207" y1="97.6488" x2="655.489" y2="97.6488" stroke="#49556B" stroke-width="0.815118"/>
<line x1="585.95" y1="0.811035" x2="585.95" y2="632.093" stroke="#49556B" stroke-width="0.815118"/>
<line x1="24.207" y1="70.3493" x2="655.489" y2="70.3493" stroke="#49556B" stroke-width="0.815118"/>
<line x1="613.25" y1="0.811035" x2="613.25" y2="632.093" stroke="#49556B" stroke-width="0.815118"/>
<line x1="24.207" y1="43.0495" x2="655.489" y2="43.0495" stroke="#49556B" stroke-width="0.815118"/>
</mask>
<g mask="url(#mask0_628_98715)">
<g filter="url(#filter0_f_628_98715)">
<ellipse cx="345.458" cy="350.284" rx="245.695" ry="115.732" fill="#24455D"/>
</g>
</g>
<g opacity="0.5" filter="url(#filter1_f_628_98715)">
<ellipse cx="225.154" cy="350.75" rx="66.1218" ry="53.7882" fill="#87BEFF"/>
</g>
<g filter="url(#filter2_f_628_98715)">
<circle cx="224.337" cy="353.819" r="60.2013" transform="rotate(90 224.337 353.819)" fill="url(#paint0_linear_628_98715)"/>
</g>
<circle r="60.2013" transform="matrix(-4.37114e-08 1 1 4.37114e-08 224.337 353.82)" fill="url(#paint1_linear_628_98715)"/>
<g filter="url(#filter3_b_628_98715)">
<path d="M224.715 409.675C193.871 409.675 168.859 384.664 168.859 353.82C168.859 322.976 193.871 297.964 224.715 297.964C255.559 297.964 280.571 322.976 280.571 353.82C280.571 384.664 255.559 409.675 224.715 409.675Z" fill="#091334"/>
<path d="M224.715 409.976C193.705 409.976 168.558 384.83 168.558 353.82C168.558 322.809 193.705 297.663 224.715 297.663C255.725 297.663 280.872 322.809 280.872 353.82C280.872 384.83 255.725 409.976 224.715 409.976Z" stroke="#BDFFEC" stroke-opacity="0.14" stroke-width="0.601945"/>
<path d="M224.715 409.976C193.705 409.976 168.558 384.83 168.558 353.82C168.558 322.809 193.705 297.663 224.715 297.663C255.725 297.663 280.872 322.809 280.872 353.82C280.872 384.83 255.725 409.976 224.715 409.976Z" stroke="url(#paint2_linear_628_98715)" stroke-opacity="0.19" stroke-width="0.601945"/>
</g>
<path d="M264.8 331.784C253.028 331.784 243.483 322.238 243.483 310.467C243.483 298.696 253.028 289.15 264.8 289.15C276.571 289.15 286.116 298.696 286.116 310.467C286.116 322.238 276.571 331.784 264.8 331.784Z" fill="#8DC2FF"/>
<path d="M259.089 317.113V315.031L265.633 306.297H259.116V303.268H270.42V305.35L263.875 314.085H270.393V317.113H259.089Z" fill="#050A18"/>
<path d="M224.706 319.69L225.154 321.217V365.523L224.706 365.971L204.2 353.815L224.706 319.69Z" fill="url(#paint3_linear_628_98715)"/>
<path d="M224.706 319.69L225.154 321.217V365.523L224.706 365.971L204.2 353.815L224.706 319.69Z" fill="url(#paint4_linear_628_98715)" fill-opacity="0.2"/>
<path d="M224.724 319.69L245.23 353.815L224.724 365.971V344.467V319.69Z" fill="url(#paint5_linear_628_98715)"/>
<path d="M224.724 319.69L245.23 353.815L224.724 365.971V344.467V319.69Z" fill="url(#paint6_linear_628_98715)" fill-opacity="0.2"/>
<path d="M224.718 369.853L224.971 370.162V385.944L224.718 386.683L204.2 357.702L224.718 369.853Z" fill="url(#paint7_linear_628_98715)"/>
<path d="M224.718 369.853L224.971 370.162V385.944L224.718 386.683L204.2 357.702L224.718 369.853Z" fill="url(#paint8_linear_628_98715)" fill-opacity="0.2"/>
<path d="M224.724 386.683V369.853L245.23 357.702L224.724 386.683Z" fill="url(#paint9_linear_628_98715)"/>
<path d="M224.724 386.683V369.853L245.23 357.702L224.724 386.683Z" fill="url(#paint10_linear_628_98715)" fill-opacity="0.2"/>
<path d="M224.734 365.969L204.229 353.812L224.734 344.464V365.969Z" fill="url(#paint11_linear_628_98715)"/>
<path d="M224.734 365.969L204.229 353.812L224.734 344.464V365.969Z" fill="url(#paint12_linear_628_98715)" fill-opacity="0.2"/>
<path d="M245.23 353.812L224.724 365.969V344.464L245.23 353.812Z" fill="url(#paint13_linear_628_98715)"/>
<path d="M245.23 353.812L224.724 365.969V344.464L245.23 353.812Z" fill="url(#paint14_linear_628_98715)" fill-opacity="0.2"/>
<g opacity="0.5" filter="url(#filter4_f_628_98715)">
<ellipse cx="510.775" cy="350.75" rx="66.1218" ry="53.7882" fill="#87BEFF"/>
</g>
<g filter="url(#filter5_f_628_98715)">
<circle cx="510.775" cy="353.819" r="60.2013" transform="rotate(90 510.775 353.819)" fill="url(#paint15_linear_628_98715)"/>
</g>
<circle r="60.2013" transform="matrix(-4.37114e-08 1 1 4.37114e-08 510.776 353.82)" fill="url(#paint16_linear_628_98715)"/>
<g filter="url(#filter6_b_628_98715)">
<path d="M511.153 409.675C480.309 409.675 455.297 384.664 455.297 353.82C455.297 322.976 480.309 297.964 511.153 297.964C541.997 297.964 567.009 322.976 567.009 353.82C567.009 384.664 541.997 409.675 511.153 409.675Z" fill="#091334"/>
<path d="M511.153 409.976C480.143 409.976 454.997 384.83 454.997 353.82C454.997 322.809 480.143 297.663 511.153 297.663C542.163 297.663 567.31 322.809 567.31 353.82C567.31 384.83 542.163 409.976 511.153 409.976Z" stroke="#BDFFEC" stroke-opacity="0.14" stroke-width="0.601945"/>
<path d="M511.153 409.976C480.143 409.976 454.997 384.83 454.997 353.82C454.997 322.809 480.143 297.663 511.153 297.663C542.163 297.663 567.31 322.809 567.31 353.82C567.31 384.83 542.163 409.976 511.153 409.976Z" stroke="url(#paint17_linear_628_98715)" stroke-opacity="0.19" stroke-width="0.601945"/>
</g>
<path d="M524.123 335.933L515.152 349.254C515.007 349.447 514.94 349.687 514.964 349.927C514.988 350.167 515.103 350.388 515.284 350.547C515.465 350.706 515.7 350.791 515.941 350.783C516.181 350.776 516.411 350.678 516.582 350.509L525.41 342.877C525.46 342.831 525.524 342.8 525.592 342.789C525.66 342.778 525.73 342.787 525.793 342.816C525.856 342.844 525.909 342.891 525.946 342.949C525.983 343.007 526.002 343.075 526.001 343.144V367.131C526 367.204 525.977 367.275 525.935 367.334C525.893 367.394 525.834 367.439 525.765 367.464C525.697 367.489 525.623 367.492 525.552 367.473C525.482 367.455 525.419 367.415 525.371 367.36L498.679 335.403C498.253 334.89 497.72 334.477 497.117 334.192C496.514 333.907 495.857 333.757 495.19 333.753H494.261C493.048 333.753 491.886 334.235 491.028 335.093C490.171 335.951 489.69 337.114 489.69 338.327V372.106C489.69 373.319 490.171 374.482 491.028 375.34C491.886 376.198 493.048 376.68 494.261 376.68C495.042 376.68 495.81 376.479 496.492 376.098C497.173 375.716 497.746 375.166 498.155 374.5L507.125 361.179C507.271 360.986 507.338 360.746 507.313 360.506C507.289 360.266 507.175 360.045 506.993 359.886C506.812 359.727 506.578 359.642 506.337 359.65C506.096 359.657 505.867 359.755 505.695 359.924L496.868 367.556C496.817 367.602 496.753 367.633 496.685 367.644C496.617 367.655 496.547 367.646 496.484 367.617C496.421 367.589 496.368 367.542 496.331 367.484C496.294 367.426 496.275 367.358 496.277 367.288V343.326C496.278 343.253 496.3 343.182 496.342 343.123C496.385 343.063 496.444 343.018 496.512 342.993C496.581 342.968 496.655 342.965 496.725 342.983C496.796 343.002 496.859 343.041 496.906 343.097L523.598 375.053C524.028 375.562 524.563 375.97 525.166 376.251C525.77 376.531 526.427 376.676 527.092 376.675H528.045C528.646 376.675 529.24 376.557 529.795 376.327C530.349 376.097 530.853 375.76 531.278 375.335C531.702 374.911 532.039 374.406 532.269 373.851C532.498 373.297 532.617 372.702 532.617 372.101V338.327C532.617 337.724 532.497 337.127 532.266 336.57C532.034 336.013 531.695 335.508 531.268 335.083C530.84 334.657 530.333 334.321 529.775 334.093C529.217 333.865 528.62 333.749 528.017 333.753C527.236 333.753 526.468 333.954 525.786 334.335C525.104 334.717 524.532 335.267 524.123 335.933Z" fill="url(#paint18_linear_628_98715)"/>
<path d="M524.123 335.933L515.152 349.254C515.007 349.447 514.94 349.687 514.964 349.927C514.988 350.167 515.103 350.388 515.284 350.547C515.465 350.706 515.7 350.791 515.941 350.783C516.181 350.776 516.411 350.678 516.582 350.509L525.41 342.877C525.46 342.831 525.524 342.8 525.592 342.789C525.66 342.778 525.73 342.787 525.793 342.816C525.856 342.844 525.909 342.891 525.946 342.949C525.983 343.007 526.002 343.075 526.001 343.144V367.131C526 367.204 525.977 367.275 525.935 367.334C525.893 367.394 525.834 367.439 525.765 367.464C525.697 367.489 525.623 367.492 525.552 367.473C525.482 367.455 525.419 367.415 525.371 367.36L498.679 335.403C498.253 334.89 497.72 334.477 497.117 334.192C496.514 333.907 495.857 333.757 495.19 333.753H494.261C493.048 333.753 491.886 334.235 491.028 335.093C490.171 335.951 489.69 337.114 489.69 338.327V372.106C489.69 373.319 490.171 374.482 491.028 375.34C491.886 376.198 493.048 376.68 494.261 376.68C495.042 376.68 495.81 376.479 496.492 376.098C497.173 375.716 497.746 375.166 498.155 374.5L507.125 361.179C507.271 360.986 507.338 360.746 507.313 360.506C507.289 360.266 507.175 360.045 506.993 359.886C506.812 359.727 506.578 359.642 506.337 359.65C506.096 359.657 505.867 359.755 505.695 359.924L496.868 367.556C496.817 367.602 496.753 367.633 496.685 367.644C496.617 367.655 496.547 367.646 496.484 367.617C496.421 367.589 496.368 367.542 496.331 367.484C496.294 367.426 496.275 367.358 496.277 367.288V343.326C496.278 343.253 496.3 343.182 496.342 343.123C496.385 343.063 496.444 343.018 496.512 342.993C496.581 342.968 496.655 342.965 496.725 342.983C496.796 343.002 496.859 343.041 496.906 343.097L523.598 375.053C524.028 375.562 524.563 375.97 525.166 376.251C525.77 376.531 526.427 376.676 527.092 376.675H528.045C528.646 376.675 529.24 376.557 529.795 376.327C530.349 376.097 530.853 375.76 531.278 375.335C531.702 374.911 532.039 374.406 532.269 373.851C532.498 373.297 532.617 372.702 532.617 372.101V338.327C532.617 337.724 532.497 337.127 532.266 336.57C532.034 336.013 531.695 335.508 531.268 335.083C530.84 334.657 530.333 334.321 529.775 334.093C529.217 333.865 528.62 333.749 528.017 333.753C527.236 333.753 526.468 333.954 525.786 334.335C525.104 334.717 524.532 335.267 524.123 335.933Z" fill="url(#paint19_linear_628_98715)" fill-opacity="0.2"/>
<path d="M551.238 331.784C539.467 331.784 529.921 322.238 529.921 310.467C529.921 298.696 539.467 289.15 551.238 289.15C563.009 289.15 572.555 298.696 572.555 310.467C572.555 322.238 563.009 331.784 551.238 331.784Z" fill="#8DC2FF"/>
<path d="M545.527 317.113V315.031L552.071 306.297H545.554V303.268H556.858V305.35L550.314 314.085H556.831V317.113H545.527Z" fill="#050A18"/>
<g filter="url(#filter7_f_628_98715)">
<path d="M314.809 355.675L419.026 355.675" stroke="url(#paint20_linear_628_98715)" stroke-width="3.0892" stroke-linecap="round"/>
</g>
<path d="M314.809 355.675L419.026 355.675" stroke="url(#paint21_linear_628_98715)" stroke-width="3.0892" stroke-linecap="round"/>
<path d="M368.257 376.331C357.161 376.331 348.164 367.334 348.164 356.238C348.164 345.143 357.161 336.145 368.257 336.145C379.352 336.145 388.35 345.143 388.35 356.238C388.35 367.334 379.352 376.331 368.257 376.331Z" fill="#8DC2FF"/>
<rect x="359.44" y="354.355" width="17.6327" height="13.4786" rx="1.48305" fill="#020613"/>
<path d="M362.781 354.341V352.303C362.781 349.291 365.223 346.849 368.235 346.849V346.849C371.247 346.849 373.689 349.291 373.689 352.303V354.341" stroke="#020613" stroke-width="2.74936"/>
<g filter="url(#filter8_f_628_98715)">
<path d="M417.83 353.741L415.174 351.078C414.875 350.772 414.708 350.36 414.708 349.932C414.708 349.504 414.875 349.093 415.174 348.787C415.321 348.631 415.498 348.507 415.694 348.422C415.89 348.337 416.102 348.294 416.316 348.294C416.531 348.295 416.745 348.339 416.943 348.424C417.141 348.508 417.321 348.632 417.471 348.787L422.903 354.261C423.054 354.412 423.174 354.591 423.256 354.789C423.338 354.987 423.38 355.199 423.38 355.413C423.38 355.627 423.338 355.839 423.256 356.037C423.174 356.235 423.054 356.414 422.903 356.565L417.445 362.039C417.294 362.19 417.115 362.31 416.918 362.392C416.721 362.474 416.509 362.516 416.296 362.516C416.083 362.516 415.871 362.474 415.674 362.392C415.477 362.31 415.298 362.19 415.147 362.039C414.996 361.888 414.877 361.708 414.795 361.51C414.713 361.313 414.672 361.101 414.672 360.887C414.672 360.673 414.713 360.461 414.795 360.263C414.877 360.066 414.996 359.886 415.147 359.735L417.803 357.071L419.423 355.446L417.83 353.741Z" fill="#9FEDE3"/>
</g>
<g filter="url(#filter9_f_628_98715)">
<path d="M316.244 353.741L318.9 351.078C319.199 350.772 319.366 350.36 319.366 349.932C319.366 349.504 319.199 349.093 318.9 348.787C318.754 348.631 318.577 348.507 318.38 348.422C318.184 348.337 317.972 348.294 317.758 348.294C317.543 348.295 317.33 348.339 317.131 348.424C316.933 348.508 316.753 348.632 316.603 348.787L311.172 354.261C311.02 354.412 310.9 354.591 310.818 354.789C310.736 354.987 310.694 355.199 310.694 355.413C310.694 355.627 310.736 355.839 310.818 356.037C310.9 356.235 311.02 356.414 311.172 356.565L316.63 362.039C316.78 362.19 316.96 362.31 317.157 362.392C317.354 362.474 317.565 362.516 317.778 362.516C317.992 362.516 318.203 362.474 318.4 362.392C318.597 362.31 318.776 362.19 318.927 362.039C319.078 361.888 319.197 361.708 319.279 361.51C319.361 361.313 319.403 361.101 319.403 360.887C319.403 360.673 319.361 360.461 319.279 360.263C319.197 360.066 319.078 359.886 318.927 359.735L316.271 357.071L314.651 355.446L316.244 353.741Z" fill="#9FEDE3"/>
</g>
<path d="M417.83 353.741L415.174 351.078C414.875 350.772 414.708 350.36 414.708 349.932C414.708 349.504 414.875 349.093 415.174 348.787C415.321 348.631 415.498 348.507 415.694 348.422C415.89 348.337 416.102 348.294 416.316 348.294C416.531 348.295 416.745 348.339 416.943 348.424C417.141 348.508 417.321 348.632 417.471 348.787L422.903 354.261C423.054 354.412 423.174 354.591 423.256 354.789C423.338 354.987 423.38 355.199 423.38 355.413C423.38 355.627 423.338 355.839 423.256 356.037C423.174 356.235 423.054 356.414 422.903 356.565L417.445 362.039C417.294 362.19 417.115 362.31 416.918 362.392C416.721 362.474 416.509 362.516 416.296 362.516C416.083 362.516 415.871 362.474 415.674 362.392C415.477 362.31 415.298 362.19 415.147 362.039C414.996 361.888 414.877 361.708 414.795 361.51C414.713 361.313 414.672 361.101 414.672 360.887C414.672 360.673 414.713 360.461 414.795 360.263C414.877 360.066 414.996 359.886 415.147 359.735L417.803 357.071L419.423 355.446L417.83 353.741Z" fill="#9FEDE3"/>
<path d="M316.244 353.741L318.9 351.078C319.199 350.772 319.366 350.36 319.366 349.932C319.366 349.504 319.199 349.093 318.9 348.787C318.754 348.631 318.577 348.507 318.38 348.422C318.184 348.337 317.972 348.294 317.758 348.294C317.543 348.295 317.33 348.339 317.131 348.424C316.933 348.508 316.753 348.632 316.603 348.787L311.172 354.261C311.02 354.412 310.9 354.591 310.818 354.789C310.736 354.987 310.694 355.199 310.694 355.413C310.694 355.627 310.736 355.839 310.818 356.037C310.9 356.235 311.02 356.414 311.172 356.565L316.63 362.039C316.78 362.19 316.96 362.31 317.157 362.392C317.354 362.474 317.565 362.516 317.778 362.516C317.992 362.516 318.203 362.474 318.4 362.392C318.597 362.31 318.776 362.19 318.927 362.039C319.078 361.888 319.197 361.708 319.279 361.51C319.361 361.313 319.403 361.101 319.403 360.887C319.403 360.673 319.361 360.461 319.279 360.263C319.197 360.066 319.078 359.886 318.927 359.735L316.271 357.071L314.651 355.446L316.244 353.741Z" fill="#9FEDE3"/>
<defs>
<filter id="filter0_f_628_98715" x="-51.4261" y="83.3625" width="793.769" height="533.842" filterUnits="userSpaceOnUse" color-interpolation-filters="sRGB">
<feFlood flood-opacity="0" result="BackgroundImageFix"/>
<feBlend mode="normal" in="SourceGraphic" in2="BackgroundImageFix" result="shape"/>
<feGaussianBlur stdDeviation="75.5945" result="effect1_foregroundBlur_628_98715"/>
</filter>
<filter id="filter1_f_628_98715" x="0.963409" y="138.893" width="448.381" height="423.714" filterUnits="userSpaceOnUse" color-interpolation-filters="sRGB">
<feFlood flood-opacity="0" result="BackgroundImageFix"/>
<feBlend mode="normal" in="SourceGraphic" in2="BackgroundImageFix" result="shape"/>
<feGaussianBlur stdDeviation="79.0344" result="effect1_foregroundBlur_628_98715"/>
</filter>
<filter id="filter2_f_628_98715" x="139.136" y="268.618" width="170.403" height="170.403" filterUnits="userSpaceOnUse" color-interpolation-filters="sRGB">
<feFlood flood-opacity="0" result="BackgroundImageFix"/>
<feBlend mode="normal" in="SourceGraphic" in2="BackgroundImageFix" result="shape"/>
<feGaussianBlur stdDeviation="12.5" result="effect1_foregroundBlur_628_98715"/>
</filter>
<filter id="filter3_b_628_98715" x="108.063" y="237.167" width="233.304" height="233.304" filterUnits="userSpaceOnUse" color-interpolation-filters="sRGB">
<feFlood flood-opacity="0" result="BackgroundImageFix"/>
<feGaussianBlur in="BackgroundImageFix" stdDeviation="30.0972"/>
<feComposite in2="SourceAlpha" operator="in" result="effect1_backgroundBlur_628_98715"/>
<feBlend mode="normal" in="SourceGraphic" in2="effect1_backgroundBlur_628_98715" result="shape"/>
</filter>
<filter id="filter4_f_628_98715" x="286.585" y="138.893" width="448.381" height="423.714" filterUnits="userSpaceOnUse" color-interpolation-filters="sRGB">
<feFlood flood-opacity="0" result="BackgroundImageFix"/>
<feBlend mode="normal" in="SourceGraphic" in2="BackgroundImageFix" result="shape"/>
<feGaussianBlur stdDeviation="79.0344" result="effect1_foregroundBlur_628_98715"/>
</filter>
<filter id="filter5_f_628_98715" x="425.574" y="268.618" width="170.403" height="170.403" filterUnits="userSpaceOnUse" color-interpolation-filters="sRGB">
<feFlood flood-opacity="0" result="BackgroundImageFix"/>
<feBlend mode="normal" in="SourceGraphic" in2="BackgroundImageFix" result="shape"/>
<feGaussianBlur stdDeviation="12.5" result="effect1_foregroundBlur_628_98715"/>
</filter>
<filter id="filter6_b_628_98715" x="394.501" y="237.167" width="233.304" height="233.304" filterUnits="userSpaceOnUse" color-interpolation-filters="sRGB">
<feFlood flood-opacity="0" result="BackgroundImageFix"/>
<feGaussianBlur in="BackgroundImageFix" stdDeviation="30.0972"/>
<feComposite in2="SourceAlpha" operator="in" result="effect1_backgroundBlur_628_98715"/>
<feBlend mode="normal" in="SourceGraphic" in2="effect1_backgroundBlur_628_98715" result="shape"/>
</filter>
<filter id="filter7_f_628_98715" x="306.599" y="347.465" width="120.636" height="16.4203" filterUnits="userSpaceOnUse" color-interpolation-filters="sRGB">
<feFlood flood-opacity="0" result="BackgroundImageFix"/>
<feBlend mode="normal" in="SourceGraphic" in2="BackgroundImageFix" result="shape"/>
<feGaussianBlur stdDeviation="3.33273" result="effect1_foregroundBlur_628_98715"/>
</filter>
<filter id="filter8_f_628_98715" x="410.228" y="343.851" width="17.5959" height="23.1092" filterUnits="userSpaceOnUse" color-interpolation-filters="sRGB">
<feFlood flood-opacity="0" result="BackgroundImageFix"/>
<feBlend mode="normal" in="SourceGraphic" in2="BackgroundImageFix" result="shape"/>
<feGaussianBlur stdDeviation="2.22182" result="effect1_foregroundBlur_628_98715"/>
</filter>
<filter id="filter9_f_628_98715" x="306.25" y="343.851" width="17.5959" height="23.1092" filterUnits="userSpaceOnUse" color-interpolation-filters="sRGB">
<feFlood flood-opacity="0" result="BackgroundImageFix"/>
<feBlend mode="normal" in="SourceGraphic" in2="BackgroundImageFix" result="shape"/>
<feGaussianBlur stdDeviation="2.22182" result="effect1_foregroundBlur_628_98715"/>
</filter>
<linearGradient id="paint0_linear_628_98715" x1="164.136" y1="293.618" x2="284.304" y2="298.932" gradientUnits="userSpaceOnUse">
<stop stop-color="#3669E6"/>
<stop offset="1" stop-color="#A0EFE1"/>
</linearGradient>
<linearGradient id="paint1_linear_628_98715" x1="0" y1="0" x2="120.168" y2="5.31357" gradientUnits="userSpaceOnUse">
<stop stop-color="#3669E6"/>
<stop offset="1" stop-color="#A0EFE1"/>
</linearGradient>
<linearGradient id="paint2_linear_628_98715" x1="224.715" y1="297.964" x2="224.715" y2="409.675" gradientUnits="userSpaceOnUse">
<stop stop-color="#7C89FA"/>
<stop offset="1" stop-opacity="0"/>
<stop offset="1" stop-color="#8A94ED" stop-opacity="0"/>
</linearGradient>
<linearGradient id="paint3_linear_628_98715" x1="214.677" y1="319.69" x2="212.98" y2="365.922" gradientUnits="userSpaceOnUse">
<stop stop-color="#E2ECFF"/>
<stop offset="0.854167" stop-color="#5F6779"/>
</linearGradient>
<linearGradient id="paint4_linear_628_98715" x1="214.677" y1="319.69" x2="214.677" y2="365.971" gradientUnits="userSpaceOnUse">
<stop stop-color="white"/>
<stop offset="1" stop-color="white" stop-opacity="0"/>
</linearGradient>
<linearGradient id="paint5_linear_628_98715" x1="234.977" y1="319.69" x2="233.243" y2="365.919" gradientUnits="userSpaceOnUse">
<stop stop-color="#E2ECFF"/>
<stop offset="0.854167" stop-color="#5F6779"/>
</linearGradient>
<linearGradient id="paint6_linear_628_98715" x1="234.977" y1="319.69" x2="234.977" y2="365.971" gradientUnits="userSpaceOnUse">
<stop stop-color="white"/>
<stop offset="1" stop-color="white" stop-opacity="0"/>
</linearGradient>
<linearGradient id="paint7_linear_628_98715" x1="214.586" y1="357.702" x2="213.914" y2="386.676" gradientUnits="userSpaceOnUse">
<stop stop-color="#E2ECFF"/>
<stop offset="0.854167" stop-color="#5F6779"/>
</linearGradient>
<linearGradient id="paint8_linear_628_98715" x1="214.586" y1="357.702" x2="214.586" y2="386.683" gradientUnits="userSpaceOnUse">
<stop stop-color="white"/>
<stop offset="1" stop-color="white" stop-opacity="0"/>
</linearGradient>
<linearGradient id="paint9_linear_628_98715" x1="234.977" y1="357.702" x2="234.296" y2="386.675" gradientUnits="userSpaceOnUse">
<stop stop-color="#E2ECFF"/>
<stop offset="0.854167" stop-color="#5F6779"/>
</linearGradient>
<linearGradient id="paint10_linear_628_98715" x1="234.977" y1="357.702" x2="234.977" y2="386.683" gradientUnits="userSpaceOnUse">
<stop stop-color="white"/>
<stop offset="1" stop-color="white" stop-opacity="0"/>
</linearGradient>
<linearGradient id="paint11_linear_628_98715" x1="214.482" y1="344.464" x2="214.107" y2="365.968" gradientUnits="userSpaceOnUse">
<stop stop-color="#E2ECFF"/>
<stop offset="0.854167" stop-color="#5F6779"/>
</linearGradient>
<linearGradient id="paint12_linear_628_98715" x1="214.482" y1="344.464" x2="214.482" y2="365.969" gradientUnits="userSpaceOnUse">
<stop stop-color="white"/>
<stop offset="1" stop-color="white" stop-opacity="0"/>
</linearGradient>
<linearGradient id="paint13_linear_628_98715" x1="234.977" y1="344.464" x2="234.602" y2="365.968" gradientUnits="userSpaceOnUse">
<stop stop-color="#E2ECFF"/>
<stop offset="0.854167" stop-color="#5F6779"/>
</linearGradient>
<linearGradient id="paint14_linear_628_98715" x1="234.977" y1="344.464" x2="234.977" y2="365.969" gradientUnits="userSpaceOnUse">
<stop stop-color="white"/>
<stop offset="1" stop-color="white" stop-opacity="0"/>
</linearGradient>
<linearGradient id="paint15_linear_628_98715" x1="450.574" y1="293.618" x2="570.742" y2="298.932" gradientUnits="userSpaceOnUse">
<stop stop-color="#3669E6"/>
<stop offset="1" stop-color="#A0EFE1"/>
</linearGradient>
<linearGradient id="paint16_linear_628_98715" x1="0" y1="0" x2="120.168" y2="5.31357" gradientUnits="userSpaceOnUse">
<stop stop-color="#3669E6"/>
<stop offset="1" stop-color="#A0EFE1"/>
</linearGradient>
<linearGradient id="paint17_linear_628_98715" x1="511.153" y1="297.964" x2="511.153" y2="409.675" gradientUnits="userSpaceOnUse">
<stop stop-color="#7C89FA"/>
<stop offset="1" stop-opacity="0"/>
<stop offset="1" stop-color="#8A94ED" stop-opacity="0"/>
</linearGradient>
<linearGradient id="paint18_linear_628_98715" x1="511.153" y1="333.753" x2="511.866" y2="376.68" gradientUnits="userSpaceOnUse">
<stop stop-color="#E2ECFF"/>
<stop offset="0.854167" stop-color="#5F6779"/>
</linearGradient>
<linearGradient id="paint19_linear_628_98715" x1="511.153" y1="333.753" x2="511.153" y2="376.68" gradientUnits="userSpaceOnUse">
<stop stop-color="white"/>
<stop offset="1" stop-color="white" stop-opacity="0"/>
</linearGradient>
<linearGradient id="paint20_linear_628_98715" x1="314.809" y1="355.675" x2="319.496" y2="377.273" gradientUnits="userSpaceOnUse">
<stop stop-color="#82BCFF"/>
<stop offset="1" stop-color="#A0EFE1"/>
</linearGradient>
<linearGradient id="paint21_linear_628_98715" x1="314.809" y1="355.675" x2="319.496" y2="377.273" gradientUnits="userSpaceOnUse">
<stop stop-color="#82BCFF"/>
<stop offset="1" stop-color="#A0EFE1"/>
</linearGradient>
</defs>
</svg>
