<svg width="632" height="632" viewBox="0 0 632 632" fill="none" xmlns="http://www.w3.org/2000/svg">
<path d="M241.404 361.811L238.341 364.883C237.997 365.236 237.804 365.711 237.804 366.204C237.804 366.698 237.997 367.172 238.341 367.525C238.51 367.705 238.714 367.848 238.941 367.946C239.167 368.044 239.411 368.094 239.658 368.094C239.907 368.093 240.153 368.042 240.381 367.944C240.61 367.847 240.817 367.704 240.99 367.525L247.255 361.212C247.429 361.038 247.568 360.831 247.663 360.603C247.757 360.375 247.806 360.13 247.806 359.883C247.806 359.636 247.757 359.392 247.663 359.164C247.568 358.935 247.429 358.729 247.255 358.554L240.96 352.241C240.786 352.066 240.579 351.928 240.352 351.834C240.125 351.739 239.881 351.69 239.635 351.69C239.389 351.69 239.145 351.739 238.918 351.834C238.691 351.928 238.484 352.066 238.31 352.241C238.136 352.415 237.998 352.623 237.904 352.851C237.81 353.079 237.761 353.323 237.761 353.57C237.761 353.816 237.81 354.061 237.904 354.289C237.998 354.517 238.136 354.724 238.31 354.898L241.373 357.971L243.242 359.845L241.404 361.811Z" fill="#A1F0E1"/>
<g filter="url(#filter0_f_1009_95226)">
<circle cx="116.411" cy="361.348" r="60.2013" fill="url(#paint0_linear_1009_95226)"/>
</g>
<circle cx="116.411" cy="361.347" r="60.2013" transform="rotate(90 116.411 361.347)" fill="url(#paint1_linear_1009_95226)"/>
<mask id="mask0_1009_95226" style="mask-type:alpha" maskUnits="userSpaceOnUse" x="0" y="0" width="632" height="632">
<line x1="43.0536" y1="2.39559e-08" x2="43.0535" y2="631.282" stroke="#49556B" stroke-width="0.815118"/>
<line x1="0.000244147" y1="588.229" x2="631.282" y2="588.229" stroke="#49556B" stroke-width="0.815118"/>
<line x1="70.3532" y1="2.39559e-08" x2="70.3532" y2="631.282" stroke="#49556B" stroke-width="0.815118"/>
<line x1="0.000244147" y1="560.929" x2="631.282" y2="560.929" stroke="#49556B" stroke-width="0.815118"/>
<line x1="97.653" y1="2.39559e-08" x2="97.653" y2="631.282" stroke="#49556B" stroke-width="0.815118"/>
<line x1="0.000244147" y1="533.629" x2="631.282" y2="533.629" stroke="#49556B" stroke-width="0.815118"/>
<line x1="124.95" y1="2.39559e-08" x2="124.95" y2="631.282" stroke="#49556B" stroke-width="0.815118"/>
<line x1="0.000244147" y1="506.33" x2="631.282" y2="506.33" stroke="#49556B" stroke-width="0.815118"/>
<line x1="152.249" y1="2.39559e-08" x2="152.249" y2="631.282" stroke="#49556B" stroke-width="0.815118"/>
<line x1="0.000244147" y1="479.03" x2="631.282" y2="479.03" stroke="#49556B" stroke-width="0.815118"/>
<line x1="179.549" y1="2.39559e-08" x2="179.549" y2="631.282" stroke="#49556B" stroke-width="0.815118"/>
<line x1="0.000244147" y1="451.73" x2="631.282" y2="451.73" stroke="#49556B" stroke-width="0.815118"/>
<line x1="206.849" y1="2.39559e-08" x2="206.849" y2="631.282" stroke="#49556B" stroke-width="0.815118"/>
<line x1="0.000244147" y1="424.431" x2="631.282" y2="424.431" stroke="#49556B" stroke-width="0.815118"/>
<line x1="234.148" y1="2.39559e-08" x2="234.148" y2="631.282" stroke="#49556B" stroke-width="0.815118"/>
<line x1="0.000244147" y1="397.131" x2="631.282" y2="397.131" stroke="#49556B" stroke-width="0.815118"/>
<line x1="261.448" y1="2.39559e-08" x2="261.448" y2="631.282" stroke="#49556B" stroke-width="0.815118"/>
<line x1="0.000244147" y1="369.831" x2="631.282" y2="369.831" stroke="#49556B" stroke-width="0.815118"/>
<line x1="288.748" y1="2.39559e-08" x2="288.748" y2="631.282" stroke="#49556B" stroke-width="0.815118"/>
<line x1="0.000244147" y1="342.532" x2="631.282" y2="342.532" stroke="#49556B" stroke-width="0.815118"/>
<line x1="316.047" y1="2.39559e-08" x2="316.047" y2="631.282" stroke="#49556B" stroke-width="0.815118"/>
<line x1="0.000244147" y1="315.232" x2="631.282" y2="315.232" stroke="#49556B" stroke-width="0.815118"/>
<line x1="343.347" y1="2.39559e-08" x2="343.347" y2="631.282" stroke="#49556B" stroke-width="0.815118"/>
<line x1="0.000244147" y1="287.932" x2="631.282" y2="287.932" stroke="#49556B" stroke-width="0.815118"/>
<line x1="370.647" y1="2.39559e-08" x2="370.647" y2="631.282" stroke="#49556B" stroke-width="0.815118"/>
<line x1="0.000244147" y1="260.633" x2="631.282" y2="260.633" stroke="#49556B" stroke-width="0.815118"/>
<line x1="397.946" y1="2.39559e-08" x2="397.946" y2="631.282" stroke="#49556B" stroke-width="0.815118"/>
<line x1="0.000244147" y1="233.333" x2="631.282" y2="233.333" stroke="#49556B" stroke-width="0.815118"/>
<line x1="425.246" y1="2.39559e-08" x2="425.246" y2="631.282" stroke="#49556B" stroke-width="0.815118"/>
<line x1="0.000244147" y1="206.033" x2="631.282" y2="206.033" stroke="#49556B" stroke-width="0.815118"/>
<line x1="452.545" y1="2.39559e-08" x2="452.545" y2="631.282" stroke="#49556B" stroke-width="0.815118"/>
<line x1="0.000244147" y1="178.734" x2="631.282" y2="178.734" stroke="#49556B" stroke-width="0.815118"/>
<line x1="479.845" y1="2.39559e-08" x2="479.845" y2="631.282" stroke="#49556B" stroke-width="0.815118"/>
<line x1="0.000244147" y1="151.437" x2="631.282" y2="151.437" stroke="#49556B" stroke-width="0.815118"/>
<line x1="507.145" y1="2.39559e-08" x2="507.145" y2="631.282" stroke="#49556B" stroke-width="0.815118"/>
<line x1="0.000244147" y1="124.137" x2="631.282" y2="124.137" stroke="#49556B" stroke-width="0.815118"/>
<line x1="534.443" y1="6.10591e-05" x2="534.443" y2="631.282" stroke="#49556B" stroke-width="0.815118"/>
<line x1="0.000244147" y1="96.8379" x2="631.282" y2="96.8379" stroke="#49556B" stroke-width="0.815118"/>
<line x1="561.743" y1="6.10591e-05" x2="561.743" y2="631.282" stroke="#49556B" stroke-width="0.815118"/>
<line x1="0.000244147" y1="69.5382" x2="631.282" y2="69.5382" stroke="#49556B" stroke-width="0.815118"/>
<line x1="589.043" y1="6.10591e-05" x2="589.043" y2="631.282" stroke="#49556B" stroke-width="0.815118"/>
<line x1="0.000244147" y1="42.2384" x2="631.282" y2="42.2384" stroke="#49556B" stroke-width="0.815118"/>
</mask>
<g mask="url(#mask0_1009_95226)">
<g filter="url(#filter1_f_1009_95226)">
<ellipse cx="321.252" cy="349.473" rx="245.695" ry="115.732" fill="#24455D"/>
</g>
</g>
<g filter="url(#filter2_b_1009_95226)">
<rect x="263.597" y="302.853" width="304.923" height="111.824" rx="17.9388" fill="#314266"/>
</g>
<rect x="285.872" y="323.819" width="74.2532" height="69.8922" rx="15.0686" fill="#8DC2FF"/>
<path d="M390.734 368.768H395.319V362.955H401.164V358.5H395.319V352.687H390.734V358.5H384.89V362.955H390.734V368.768ZM408.127 372.094H413.035V349.329H409.645L403.154 351.267L404.188 355.335L408.127 354.366V372.094ZM426.787 372.481C432.825 372.481 436.861 367.347 436.861 360.792V360.727C436.861 354.173 432.825 349.103 426.851 349.103C420.845 349.103 416.777 354.237 416.777 360.792V360.857C416.777 367.411 420.748 372.481 426.787 372.481ZM426.851 367.993C423.848 367.993 421.879 364.925 421.879 360.792V360.727C421.879 356.594 423.816 353.591 426.787 353.591C429.757 353.591 431.759 356.691 431.759 360.792V360.857C431.759 364.957 429.854 367.993 426.851 367.993ZM449.405 372.481C455.443 372.481 459.479 367.347 459.479 360.792V360.727C459.479 354.173 455.443 349.103 449.469 349.103C443.463 349.103 439.395 354.237 439.395 360.792V360.857C439.395 367.411 443.366 372.481 449.405 372.481ZM449.469 367.993C446.466 367.993 444.496 364.925 444.496 360.792V360.727C444.496 356.594 446.434 353.591 449.405 353.591C452.375 353.591 454.377 356.691 454.377 360.792V360.857C454.377 364.957 452.472 367.993 449.469 367.993ZM471.693 372.094H476.666V365.313H480.444C485.513 365.313 489.582 362.6 489.582 357.369V357.305C489.582 352.687 486.321 349.491 480.928 349.491H471.693V372.094ZM476.666 360.889V353.979H480.508C482.995 353.979 484.545 355.174 484.545 357.402V357.466C484.545 359.404 483.092 360.889 480.605 360.889H476.666ZM492.293 372.094H497.266V364.861H501.173L506.016 372.094H511.829L506.307 364.021C509.181 362.955 511.15 360.663 511.15 357.014V356.95C511.15 354.818 510.472 353.043 509.213 351.783C507.728 350.298 505.5 349.491 502.626 349.491H492.293V372.094ZM497.266 360.469V353.979H502.206C504.628 353.979 506.113 355.077 506.113 357.208V357.272C506.113 359.178 504.725 360.469 502.303 360.469H497.266ZM514.659 372.094H519.632V365.313H523.409C528.479 365.313 532.547 362.6 532.547 357.369V357.305C532.547 352.687 529.286 349.491 523.894 349.491H514.659V372.094ZM519.632 360.889V353.979H523.474C525.96 353.979 527.51 355.174 527.51 357.402V357.466C527.51 359.404 526.057 360.889 523.571 360.889H519.632Z" fill="white"/>
<path d="M312.268 375.622H319.783V365.375H325.491C333.152 365.375 339.3 361.277 339.3 353.372V353.275C339.3 346.297 334.372 341.467 326.223 341.467H312.268V375.622ZM319.783 358.691V348.249H325.589C329.346 348.249 331.688 350.054 331.688 353.421V353.519C331.688 356.446 329.492 358.691 325.735 358.691H319.783Z" fill="#050B1F"/>
<rect x="288.021" y="348.161" width="43.5046" height="10.5334" rx="5.26672" fill="#8DC2FF"/>
<path d="M243.679 359.892L161.477 359.892" stroke="url(#paint2_linear_1009_95226)" stroke-width="2.78078"/>
<g filter="url(#filter3_b_1009_95226)">
<path d="M116.789 417.204C85.9445 417.204 60.9329 392.192 60.9329 361.348C60.9329 330.504 85.9445 305.492 116.789 305.492C147.632 305.492 172.644 330.504 172.644 361.348C172.644 392.192 147.632 417.204 116.789 417.204Z" fill="#091334"/>
<path d="M116.789 417.504C85.7783 417.504 60.6319 392.358 60.6319 361.348C60.6319 330.338 85.7783 305.191 116.789 305.191C147.799 305.191 172.945 330.338 172.945 361.348C172.945 392.358 147.799 417.504 116.789 417.504Z" stroke="#BDFFEC" stroke-opacity="0.14" stroke-width="0.601945"/>
<path d="M116.789 417.504C85.7783 417.504 60.6319 392.358 60.6319 361.348C60.6319 330.338 85.7783 305.191 116.789 305.191C147.799 305.191 172.945 330.338 172.945 361.348C172.945 392.358 147.799 417.504 116.789 417.504Z" stroke="url(#paint3_linear_1009_95226)" stroke-opacity="0.19" stroke-width="0.601945"/>
</g>
<path d="M156.873 339.312C145.102 339.312 135.556 329.767 135.556 317.996C135.556 306.224 145.102 296.679 156.873 296.679C168.644 296.679 178.19 306.224 178.19 317.996C178.19 329.767 168.644 339.312 156.873 339.312Z" fill="#8DC2FF"/>
<path d="M151.162 324.642V322.559L157.706 313.825H151.189V310.796H162.493V312.878L155.949 321.613H162.466V324.642H151.162Z" fill="#050A18"/>
<path d="M117.603 327.219L118.051 328.746V373.051L117.603 373.499L97.0975 361.343L117.603 327.219Z" fill="url(#paint4_linear_1009_95226)"/>
<path d="M117.603 327.219L118.051 328.746V373.051L117.603 373.499L97.0975 361.343L117.603 327.219Z" fill="url(#paint5_linear_1009_95226)" fill-opacity="0.2"/>
<path d="M117.621 327.219L138.127 361.343L117.621 373.499V351.995V327.219Z" fill="url(#paint6_linear_1009_95226)"/>
<path d="M117.621 327.219L138.127 361.343L117.621 373.499V351.995V327.219Z" fill="url(#paint7_linear_1009_95226)" fill-opacity="0.2"/>
<path d="M117.616 377.381L117.868 377.69V393.472L117.616 394.212L97.0976 365.231L117.616 377.381Z" fill="url(#paint8_linear_1009_95226)"/>
<path d="M117.616 377.381L117.868 377.69V393.472L117.616 394.212L97.0976 365.231L117.616 377.381Z" fill="url(#paint9_linear_1009_95226)" fill-opacity="0.2"/>
<path d="M117.621 394.212V377.381L138.127 365.231L117.621 394.212Z" fill="url(#paint10_linear_1009_95226)"/>
<path d="M117.621 394.212V377.381L138.127 365.231L117.621 394.212Z" fill="url(#paint11_linear_1009_95226)" fill-opacity="0.2"/>
<path d="M117.632 373.497L97.126 361.34L117.632 351.992V373.497Z" fill="url(#paint12_linear_1009_95226)"/>
<path d="M117.632 373.497L97.126 361.34L117.632 351.992V373.497Z" fill="url(#paint13_linear_1009_95226)" fill-opacity="0.2"/>
<path d="M138.127 361.34L117.621 373.497V351.992L138.127 361.34Z" fill="url(#paint14_linear_1009_95226)"/>
<path d="M138.127 361.34L117.621 373.497V351.992L138.127 361.34Z" fill="url(#paint15_linear_1009_95226)" fill-opacity="0.2"/>
<defs>
<filter id="filter0_f_1009_95226" x="31.2095" y="276.146" width="170.403" height="170.403" filterUnits="userSpaceOnUse" color-interpolation-filters="sRGB">
<feFlood flood-opacity="0" result="BackgroundImageFix"/>
<feBlend mode="normal" in="SourceGraphic" in2="BackgroundImageFix" result="shape"/>
<feGaussianBlur stdDeviation="12.5" result="effect1_foregroundBlur_1009_95226"/>
</filter>
<filter id="filter1_f_1009_95226" x="-75.6329" y="82.5515" width="793.769" height="533.842" filterUnits="userSpaceOnUse" color-interpolation-filters="sRGB">
<feFlood flood-opacity="0" result="BackgroundImageFix"/>
<feBlend mode="normal" in="SourceGraphic" in2="BackgroundImageFix" result="shape"/>
<feGaussianBlur stdDeviation="75.5945" result="effect1_foregroundBlur_1009_95226"/>
</filter>
<filter id="filter2_b_1009_95226" x="191.842" y="231.098" width="448.433" height="255.334" filterUnits="userSpaceOnUse" color-interpolation-filters="sRGB">
<feFlood flood-opacity="0" result="BackgroundImageFix"/>
<feGaussianBlur in="BackgroundImageFix" stdDeviation="35.8775"/>
<feComposite in2="SourceAlpha" operator="in" result="effect1_backgroundBlur_1009_95226"/>
<feBlend mode="normal" in="SourceGraphic" in2="effect1_backgroundBlur_1009_95226" result="shape"/>
</filter>
<filter id="filter3_b_1009_95226" x="0.136459" y="244.696" width="233.304" height="233.304" filterUnits="userSpaceOnUse" color-interpolation-filters="sRGB">
<feFlood flood-opacity="0" result="BackgroundImageFix"/>
<feGaussianBlur in="BackgroundImageFix" stdDeviation="30.0972"/>
<feComposite in2="SourceAlpha" operator="in" result="effect1_backgroundBlur_1009_95226"/>
<feBlend mode="normal" in="SourceGraphic" in2="effect1_backgroundBlur_1009_95226" result="shape"/>
</filter>
<linearGradient id="paint0_linear_1009_95226" x1="56.2095" y1="301.146" x2="176.377" y2="306.46" gradientUnits="userSpaceOnUse">
<stop stop-color="#3669E6"/>
<stop offset="1" stop-color="#A0EFE1"/>
</linearGradient>
<linearGradient id="paint1_linear_1009_95226" x1="56.2096" y1="301.146" x2="176.377" y2="306.459" gradientUnits="userSpaceOnUse">
<stop stop-color="#3669E6"/>
<stop offset="1" stop-color="#A0EFE1"/>
</linearGradient>
<linearGradient id="paint2_linear_1009_95226" x1="243.679" y1="359.892" x2="243.679" y2="359.884" gradientUnits="userSpaceOnUse">
<stop stop-color="#82BCFF"/>
<stop offset="1" stop-color="#A0EFE1"/>
</linearGradient>
<linearGradient id="paint3_linear_1009_95226" x1="116.789" y1="305.492" x2="116.789" y2="417.203" gradientUnits="userSpaceOnUse">
<stop stop-color="#7C89FA"/>
<stop offset="1" stop-opacity="0"/>
<stop offset="1" stop-color="#8A94ED" stop-opacity="0"/>
</linearGradient>
<linearGradient id="paint4_linear_1009_95226" x1="107.574" y1="327.219" x2="105.877" y2="373.45" gradientUnits="userSpaceOnUse">
<stop stop-color="#E2ECFF"/>
<stop offset="0.854167" stop-color="#5F6779"/>
</linearGradient>
<linearGradient id="paint5_linear_1009_95226" x1="107.574" y1="327.219" x2="107.574" y2="373.499" gradientUnits="userSpaceOnUse">
<stop stop-color="white"/>
<stop offset="1" stop-color="white" stop-opacity="0"/>
</linearGradient>
<linearGradient id="paint6_linear_1009_95226" x1="127.874" y1="327.219" x2="126.14" y2="373.447" gradientUnits="userSpaceOnUse">
<stop stop-color="#E2ECFF"/>
<stop offset="0.854167" stop-color="#5F6779"/>
</linearGradient>
<linearGradient id="paint7_linear_1009_95226" x1="127.874" y1="327.219" x2="127.874" y2="373.499" gradientUnits="userSpaceOnUse">
<stop stop-color="white"/>
<stop offset="1" stop-color="white" stop-opacity="0"/>
</linearGradient>
<linearGradient id="paint8_linear_1009_95226" x1="107.483" y1="365.231" x2="106.811" y2="394.204" gradientUnits="userSpaceOnUse">
<stop stop-color="#E2ECFF"/>
<stop offset="0.854167" stop-color="#5F6779"/>
</linearGradient>
<linearGradient id="paint9_linear_1009_95226" x1="107.483" y1="365.231" x2="107.483" y2="394.212" gradientUnits="userSpaceOnUse">
<stop stop-color="white"/>
<stop offset="1" stop-color="white" stop-opacity="0"/>
</linearGradient>
<linearGradient id="paint10_linear_1009_95226" x1="127.874" y1="365.231" x2="127.193" y2="394.204" gradientUnits="userSpaceOnUse">
<stop stop-color="#E2ECFF"/>
<stop offset="0.854167" stop-color="#5F6779"/>
</linearGradient>
<linearGradient id="paint11_linear_1009_95226" x1="127.874" y1="365.231" x2="127.874" y2="394.212" gradientUnits="userSpaceOnUse">
<stop stop-color="white"/>
<stop offset="1" stop-color="white" stop-opacity="0"/>
</linearGradient>
<linearGradient id="paint12_linear_1009_95226" x1="107.379" y1="351.992" x2="107.004" y2="373.496" gradientUnits="userSpaceOnUse">
<stop stop-color="#E2ECFF"/>
<stop offset="0.854167" stop-color="#5F6779"/>
</linearGradient>
<linearGradient id="paint13_linear_1009_95226" x1="107.379" y1="351.992" x2="107.379" y2="373.497" gradientUnits="userSpaceOnUse">
<stop stop-color="white"/>
<stop offset="1" stop-color="white" stop-opacity="0"/>
</linearGradient>
<linearGradient id="paint14_linear_1009_95226" x1="127.874" y1="351.992" x2="127.499" y2="373.496" gradientUnits="userSpaceOnUse">
<stop stop-color="#E2ECFF"/>
<stop offset="0.854167" stop-color="#5F6779"/>
</linearGradient>
<linearGradient id="paint15_linear_1009_95226" x1="127.874" y1="351.992" x2="127.874" y2="373.497" gradientUnits="userSpaceOnUse">
<stop stop-color="white"/>
<stop offset="1" stop-color="white" stop-opacity="0"/>
</linearGradient>
</defs>
</svg>
