<svg width="71" height="55" viewBox="0 0 71 55" fill="none" xmlns="http://www.w3.org/2000/svg">
<path d="M60.7571 6.77283C54.6609 1.72604 45.0171 0.870554 44.6043 0.83978C43.9642 0.784389 43.354 1.15367 43.0907 1.76297C43.0668 1.7999 42.8574 2.29842 42.6241 3.0739C46.6563 3.77553 51.6098 5.18494 56.0907 8.04683C56.8086 8.50227 57.03 9.4747 56.5873 10.2133C56.2941 10.6995 55.7976 10.9641 55.2831 10.9641C55.0079 10.9641 54.7267 10.8841 54.4754 10.7241C46.77 5.80655 37.1501 5.56037 35.2955 5.56037C33.441 5.56037 23.8151 5.80655 16.1156 10.7241C15.3977 11.1857 14.4525 10.958 14.0098 10.2194C13.5611 9.4747 13.7825 8.50843 14.5004 8.04683C18.9812 5.19109 23.9348 3.77553 27.967 3.08006C27.7337 2.29842 27.5243 1.80606 27.5063 1.76297C27.2371 1.15367 26.6329 0.77208 25.9868 0.83978C25.574 0.870554 15.9302 1.72604 9.75025 6.84053C6.52568 9.91168 0.0705566 27.8585 0.0705566 43.3743C0.0705566 43.6513 0.142347 43.9159 0.273962 44.1559C4.72494 52.2062 16.8754 54.311 19.6453 54.4034C19.6573 54.4034 19.6752 54.4034 19.6932 54.4034C20.1837 54.4034 20.6444 54.1633 20.9315 53.7571L23.7314 49.7936C16.1755 47.7872 12.3167 44.3775 12.0954 44.1744C11.4612 43.602 11.4014 42.605 11.9638 41.9526C12.5201 41.3002 13.4893 41.2386 14.1235 41.811C14.2132 41.8972 21.3204 48.101 35.2955 48.101C49.2946 48.101 56.4018 41.8726 56.4736 41.811C57.1077 41.2448 58.0709 41.3002 58.6333 41.9587C59.1897 42.6111 59.1298 43.602 58.4957 44.1744C58.2743 44.3775 54.4156 47.7872 46.8597 49.7936L49.6595 53.7571C49.9467 54.1633 50.4073 54.4034 50.8979 54.4034C50.9158 54.4034 50.9338 54.4034 50.9458 54.4034C53.7157 54.311 65.8661 52.2062 70.3171 44.1559C70.4487 43.9159 70.5205 43.6513 70.5205 43.3743C70.5205 27.8585 64.0654 9.91168 60.7571 6.77283ZM25.3406 37.072C22.3793 37.072 19.9803 34.2532 19.9803 30.7697C19.9803 27.2861 22.3793 24.4673 25.3406 24.4673C28.302 24.4673 30.701 27.2861 30.701 30.7697C30.701 34.2532 28.302 37.072 25.3406 37.072ZM45.2504 37.072C42.2891 37.072 39.8901 34.2532 39.8901 30.7697C39.8901 27.2861 42.2891 24.4673 45.2504 24.4673C48.2118 24.4673 50.6107 27.2861 50.6107 30.7697C50.6107 34.2532 48.2118 37.072 45.2504 37.072Z" fill="white"/>
</svg>
