<svg width="72" height="67" viewBox="0 0 72 67" fill="none" xmlns="http://www.w3.org/2000/svg">
<path d="M70.1635 1.60278C68.9493 0.552627 67.0421 0.40237 65.0702 1.2098H65.0669C62.993 2.0585 6.36081 26.8327 4.05537 27.8449C3.63605 27.9935 -0.0260973 29.3871 0.351127 32.4913C0.687876 35.2901 3.6312 36.4492 3.99061 36.5829L18.3883 41.6108C19.3435 44.8537 22.8648 56.8181 23.6435 59.3741C24.1292 60.9675 24.9209 63.0612 26.3084 63.4922C27.5258 63.971 28.7368 63.5334 29.5204 62.906L38.3229 54.5791L52.5327 65.8814L52.8711 66.0878C53.836 66.5237 54.7605 66.7417 55.6428 66.7417C56.3244 66.7417 56.9785 66.6112 57.6034 66.3503C59.7324 65.4587 60.584 63.3898 60.673 63.1553L71.2871 6.88819C71.9347 3.88305 71.0345 2.35406 70.1635 1.60278ZM31.086 43.6219L26.229 56.8313L21.3721 40.3195L58.6088 12.2496L31.086 43.6219Z" fill="white"/>
</svg>
